<svg width="36" height="36" viewBox="0 0 36 36" fill="none" xmlns="http://www.w3.org/2000/svg">
<path d="M29.25 18.858L18 30L6.74996 18.858C6.00792 18.1359 5.42343 17.268 5.03329 16.309C4.64314 15.3499 4.45581 14.3204 4.48307 13.2854C4.51033 12.2504 4.75161 11.2322 5.1917 10.295C5.63179 9.35783 6.26117 8.5219 7.04019 7.83989C7.81922 7.15788 8.73102 6.64455 9.71818 6.33224C10.7053 6.01993 11.7465 5.9154 12.776 6.02522C13.8056 6.13505 14.8012 6.45686 15.7003 6.97038C16.5993 7.4839 17.3823 8.17802 18 9.00902C18.6203 8.18405 19.4042 7.496 20.3026 6.98793C21.2011 6.47985 22.1947 6.1627 23.2214 6.0563C24.248 5.94991 25.2856 6.05657 26.2691 6.36961C27.2527 6.68265 28.161 7.19533 28.9373 7.87557C29.7136 8.5558 30.3411 9.38895 30.7806 10.3229C31.2201 11.2568 31.4621 12.2713 31.4914 13.3031C31.5208 14.3348 31.3369 15.3615 30.9512 16.3189C30.5655 17.2763 29.9863 18.1438 29.25 18.867" stroke="#E76172" stroke-width="2" stroke-linecap="round" stroke-linejoin="round"/>
<path d="M18 9L13.0605 13.9395C12.7793 14.2208 12.6213 14.6023 12.6213 15C12.6213 15.3977 12.7793 15.7792 13.0605 16.0605L13.875 16.875C14.91 17.91 16.59 17.91 17.625 16.875L19.125 15.375C19.568 14.9314 20.0941 14.5795 20.6732 14.3395C21.2524 14.0994 21.8731 13.9758 22.5 13.9758C23.1269 13.9758 23.7477 14.0994 24.3268 14.3395C24.9059 14.5795 25.432 14.9314 25.875 15.375L29.25 18.75M18.75 23.25L21.75 26.25M22.5 19.5L25.5 22.5" stroke="#E76172" stroke-width="2" stroke-linecap="round" stroke-linejoin="round"/>
</svg>
