<svg width="31" height="27" viewBox="0 0 31 27" fill="none" xmlns="http://www.w3.org/2000/svg">
<path d="M14.5833 21.875C14.5825 20.1527 15.0178 18.4582 15.8486 16.9495C16.6793 15.4408 17.8786 14.167 19.3345 13.2469C20.7904 12.3267 22.4556 11.7902 24.1748 11.6873C25.8941 11.5844 27.6114 11.9184 29.1667 12.6583V2.91667C29.1667 1.3125 27.8542 0 26.25 0H2.91667C1.3125 0 0 1.3125 0 2.91667V20.4167C0 22.0208 1.3125 23.3333 2.91667 23.3333H14.7C14.6271 22.8521 14.5833 22.3708 14.5833 21.875ZM2.91667 2.91667L14.5833 10.2083L26.25 2.91667V5.83333L14.5833 13.125L2.91667 5.83333V2.91667ZM22.3708 26.25L17.2083 21.0875L19.2646 19.0312L22.3563 22.1229L28.5396 15.9396L30.625 17.9958L22.3708 26.25Z" fill="#E76172"/>
</svg>
