<svg width="33" height="33" viewBox="0 0 33 33" fill="none" xmlns="http://www.w3.org/2000/svg">
<path d="M30.4906 14.4719C30.7427 14.7469 30.8688 15.0737 30.8688 15.4522C30.8688 15.8308 30.7427 16.1572 30.4906 16.4312L25.6094 21.2781C25.3573 21.5531 25.0365 21.6906 24.6469 21.6906C24.2573 21.6906 23.9365 21.5531 23.6844 21.2781L21.725 19.3531C21.45 19.0781 21.3125 18.7518 21.3125 18.3741C21.3125 17.9965 21.45 17.6697 21.725 17.3937C22 17.1417 22.3268 17.0156 22.7054 17.0156C23.084 17.0156 23.4103 17.1417 23.6844 17.3937L24.6469 18.3563L28.5312 14.4719C28.8062 14.2198 29.1326 14.0938 29.5103 14.0938C29.8879 14.0938 30.2147 14.2198 30.4906 14.4719ZM14.1969 28.0844L10.7594 24.9562C9.10937 23.4667 7.6945 22.1375 6.51475 20.9688C5.335 19.8 4.36104 18.7 3.59288 17.6688C2.82471 16.6375 2.26325 15.6406 1.9085 14.6781C1.55375 13.7156 1.37592 12.7073 1.375 11.6531C1.375 9.49896 2.09688 7.70596 3.54063 6.27413C4.98438 4.84229 6.78333 4.12592 8.9375 4.125C10.1292 4.125 11.2635 4.37158 12.3406 4.86475C13.4177 5.35792 14.3458 6.06237 15.125 6.97812C15.9042 6.06146 16.8323 5.357 17.9094 4.86475C18.9865 4.3725 20.1208 4.12592 21.3125 4.125C23.2604 4.125 24.8935 4.71533 26.2116 5.896C27.5298 7.07667 28.3488 8.45717 28.6688 10.0375C28.2104 9.85417 27.7292 9.73958 27.225 9.69375C26.7208 9.64792 26.2052 9.625 25.6781 9.625C23.7302 9.625 21.9427 10.4101 20.3156 11.9804C18.6885 13.5506 17.875 15.5155 17.875 17.875C17.875 18.975 18.1156 20.0924 18.5969 21.2272C19.0781 22.3621 19.7542 23.2843 20.625 23.9938C20.1896 24.3833 19.6226 24.882 18.9241 25.4897C18.2256 26.0975 17.6238 26.6301 17.1187 27.0875L16.0187 28.0844C15.7667 28.3135 15.4628 28.4281 15.1071 28.4281C14.7515 28.4281 14.448 28.3135 14.1969 28.0844Z" fill="#FFA1AD"/>
</svg>
