<svg width="24" height="27" viewBox="0 0 24 27" fill="none" xmlns="http://www.w3.org/2000/svg">
<path fill-rule="evenodd" clip-rule="evenodd" d="M10.893 26.2917C10.893 26.2917 0 18.3052 0 10.4467C0 7.67604 1.26428 5.01889 3.51472 3.05976C5.76516 1.10063 8.8174 0 12 0C15.1826 0 18.2348 1.10063 20.4853 3.05976C22.7357 5.01889 24 7.67604 24 10.4467C24 18.3052 13.107 26.2917 13.107 26.2917C12.501 26.7774 11.5035 26.7722 10.893 26.2917ZM12 15.0171C12.6894 15.0171 13.3721 14.8989 14.0091 14.6692C14.646 14.4395 15.2248 14.1028 15.7123 13.6784C16.1998 13.254 16.5865 12.7502 16.8504 12.1957C17.1142 11.6412 17.25 11.0469 17.25 10.4467C17.25 9.84648 17.1142 9.25216 16.8504 8.69765C16.5865 8.14314 16.1998 7.6393 15.7123 7.2149C15.2248 6.7905 14.646 6.45384 14.0091 6.22416C13.3721 5.99447 12.6894 5.87625 12 5.87625C10.6076 5.87625 9.27225 6.35778 8.28769 7.2149C7.30312 8.07202 6.75 9.23452 6.75 10.4467C6.75 11.6588 7.30312 12.8213 8.28769 13.6784C9.27225 14.5356 10.6076 15.0171 12 15.0171Z" fill="#E76172"/>
</svg>
