<svg width="33" height="33" viewBox="0 0 33 33" fill="none" xmlns="http://www.w3.org/2000/svg">
<path d="M4.125 6.875L26.125 28.875M27.5 24.75V11C27.5 10.6353 27.3551 10.2856 27.0973 10.0277C26.8394 9.76987 26.4897 9.625 26.125 9.625H22.8498C22.5945 9.62486 22.3443 9.55366 22.1272 9.41937C21.91 9.28507 21.7346 9.09299 21.6205 8.86463L21.0045 7.63537C20.8904 7.40701 20.715 7.21493 20.4978 7.08063C20.2807 6.94634 20.0305 6.87514 19.7752 6.875H13.3664C13.0777 6.87493 12.7963 6.96573 12.5621 7.13454C12.3279 7.30335 12.1527 7.54159 12.0615 7.8155L11.6875 8.9375M22 24.75H6.875C6.51033 24.75 6.16059 24.6051 5.90273 24.3473C5.64487 24.0894 5.5 23.7397 5.5 23.375V11C5.5 10.6353 5.64487 10.2856 5.90273 10.0277C6.16059 9.76987 6.51033 9.625 6.875 9.625" stroke="#E76172" stroke-width="2" stroke-linecap="round"/>
<path d="M15.125 12.6087C15.8595 12.3483 16.6528 12.3013 17.413 12.4731C18.1732 12.645 18.8691 13.0287 19.4202 13.5798C19.9712 14.1308 20.3549 14.8268 20.5268 15.5869C20.6987 16.3471 20.6517 17.1404 20.3912 17.8749" stroke="#E76172" stroke-width="2" stroke-linecap="round"/>
</svg>
