<svg width="52" height="52" viewBox="0 0 52 52" fill="none" xmlns="http://www.w3.org/2000/svg">
<circle cx="26.001" cy="26.0011" r="24" transform="rotate(-2.34275 26.001 26.0011)" stroke="#FFA1AD" stroke-width="2"/>
<path d="M34.9935 25.6332C35.0418 26.8141 34.857 27.9929 34.4498 29.1024C34.0425 30.2119 33.4206 31.2304 32.6198 32.0995C31.8189 32.9687 30.8547 33.6717 29.7822 34.1682C28.7096 34.6648 27.5498 34.9452 26.3689 34.9935C25.188 35.0418 24.0091 34.8571 22.8996 34.4498C21.7901 34.0425 20.7717 33.4207 19.9025 32.6198C19.0333 31.819 18.3304 30.8547 17.8338 29.7822C17.3373 28.7097 17.0568 27.5499 17.0085 26.3689C16.9109 23.984 17.7648 21.658 19.3822 19.9025C20.9996 18.1471 23.2481 17.1061 25.6331 17.0086C28.0181 16.911 30.3441 17.7648 32.0995 19.3823C33.8549 20.9997 34.8959 23.2482 34.9935 25.6332Z" stroke="#7D7777" stroke-width="1.5" stroke-linecap="round" stroke-linejoin="round"/>
<path d="M21.505 27.3659C20.3055 25.1511 21.6321 20.6871 26.7293 21.1992C32.3431 21.7642 31.6939 30.482 27.0259 30.3327C25.5488 30.286 24.9423 29.0888 24.7454 27.8478M24.7454 27.8478C24.5969 26.9071 24.6835 25.9418 24.8068 25.4333C25.0156 24.5671 25.425 24.6674 25.1756 25.8116C25.0543 26.369 24.9067 27.0686 24.7454 27.8478ZM24.7454 27.8478C24.3161 29.9271 23.7879 32.5759 23.391 34.6169" stroke="#7D7777" stroke-width="1.5" stroke-linecap="round" stroke-linejoin="round"/>
</svg>
