<svg width="51" height="51" viewBox="0 0 51 51" fill="none" xmlns="http://www.w3.org/2000/svg">
<circle cx="25.3648" cy="25.3648" r="24" transform="rotate(-0.84235 25.3648 25.3648)" stroke="#FFA1AD" stroke-width="2"/>
<path fill-rule="evenodd" clip-rule="evenodd" d="M27.2322 16.3366C27.4974 16.3327 27.7532 16.4343 27.9435 16.6191C28.1338 16.8039 28.2429 17.0566 28.2468 17.3218C28.2609 18.2436 28.5927 19.1323 29.1861 19.8379C29.7796 20.5434 30.5983 21.0225 31.5041 21.1944C31.7647 21.2436 31.9952 21.3943 32.1447 21.6134C32.2942 21.8326 32.3505 22.1021 32.3013 22.3628C32.2521 22.6234 32.1014 22.8539 31.8822 23.0034C31.6631 23.1529 31.3936 23.2092 31.1329 23.16C30.0881 22.9618 29.1147 22.4895 28.3125 21.7913L28.4379 30.3204C28.4524 31.3092 28.1734 32.2801 27.6362 33.1104C27.0989 33.9406 26.3275 34.5929 25.4196 34.9847C24.5116 35.3765 23.5078 35.4903 22.5352 35.3117C21.5625 35.133 20.6647 34.67 19.9553 33.9811C19.2458 33.2922 18.7565 32.4083 18.5494 31.4414C18.3422 30.4744 18.4264 29.4677 18.7914 28.5486C19.1564 27.6295 19.7857 26.8393 20.5998 26.2779C21.4138 25.7164 22.3761 25.409 23.3649 25.3945C23.6301 25.3906 23.886 25.4922 24.0763 25.6769C24.2665 25.8617 24.3756 26.1145 24.3795 26.3797C24.3834 26.6448 24.2818 26.9007 24.0971 27.091C23.9123 27.2813 23.6595 27.3904 23.3943 27.3943C22.801 27.403 22.2237 27.5874 21.7352 27.9243C21.2468 28.2612 20.8692 28.7353 20.6502 29.2868C20.4312 29.8382 20.3807 30.4422 20.505 31.0224C20.6293 31.6026 20.9228 32.1329 21.3485 32.5462C21.7742 32.9596 22.3129 33.2374 22.8965 33.3446C23.4801 33.4518 24.0823 33.3835 24.6271 33.1484C25.1719 32.9133 25.6347 32.5219 25.9571 32.0238C26.2794 31.5256 26.4468 30.9431 26.4381 30.3498L26.247 17.3512C26.2431 17.086 26.3447 16.8302 26.5295 16.6399C26.7142 16.4496 26.967 16.3405 27.2322 16.3366Z" fill="#7D7777"/>
</svg>
