<svg width="30" height="39" viewBox="0 0 30 39" fill="none" xmlns="http://www.w3.org/2000/svg">
<g clip-path="url(#clip0_243_1048)">
<path fill-rule="evenodd" clip-rule="evenodd" d="M14.9999 0.92334C7.21854 0.92334 0.887939 7.50716 0.887939 15.5998C0.887939 16.3823 0.949139 17.1723 1.06914 17.9479C2.17434 25.0915 8.03334 30.2763 14.9999 30.2763C21.9683 30.2763 27.8273 25.0915 28.9325 17.9479C29.0519 17.1785 29.1119 16.3892 29.1119 15.5998C29.1119 7.50716 22.7819 0.92334 14.9999 0.92334ZM21.5111 25.7373C19.5869 27.0802 17.3357 27.7897 14.9999 27.7897C9.48954 27.7897 4.78914 23.8909 3.57054 18.3105C3.37674 17.4281 3.27834 16.5165 3.27834 15.5998C3.27834 13.1768 3.96114 10.8356 5.25174 8.82942L5.81994 7.94771L10.8293 13.1569L10.8449 18.1195C10.8323 19.0156 12.4613 19.3251 12.5645 18.1152V14.9621L12.7517 15.1568L12.7013 25.4902C12.6791 26.4468 14.6309 26.7588 14.8019 25.4453L14.7965 17.2834L15.0719 17.5704L15.1151 25.5751C15.0995 26.5997 17.1017 26.581 17.1689 25.1938L17.1509 19.7319L22.3583 25.147L21.5111 25.7373ZM17.1233 11.4908L17.3177 11.5607V16.1134L17.1383 15.9262L17.1233 11.4908ZM26.4311 18.3092C26.1155 19.7563 25.5503 21.1228 24.7499 22.3696L24.1829 23.2551L19.1171 17.9854C19.1225 17.9467 19.1297 17.9117 19.1315 17.8693L19.1807 10.2721C19.1807 9.18136 18.3707 8.48684 17.4023 8.37265H12.5489C11.8139 8.41384 11.1821 8.83379 10.9349 9.47339L7.64334 6.04888L8.49294 5.45857C10.4237 4.11697 12.6737 3.40748 14.9999 3.40748C21.4637 3.40748 26.7233 8.87747 26.7233 15.5998C26.7233 16.5146 26.6249 17.4269 26.4311 18.3092Z" fill="#E76172"/>
<path fill-rule="evenodd" clip-rule="evenodd" d="M15.166 4.87744C14.3146 4.87744 13.6252 5.60503 13.6252 6.50483C13.6252 7.40464 14.3146 8.13223 15.166 8.13223C16.018 8.13223 16.7116 7.40464 16.7116 6.50483C16.7116 5.60503 16.018 4.87744 15.166 4.87744Z" fill="#E76172"/>
<path d="M3.5245 40.0767H2.7468C2.7326 39.976 2.7036 39.8867 2.6598 39.8085C2.616 39.7292 2.55978 39.6618 2.49112 39.6061C2.42247 39.5505 2.34316 39.5079 2.2532 39.4783C2.16442 39.4487 2.06795 39.4339 1.96378 39.4339C1.77557 39.4339 1.61162 39.4807 1.47195 39.5742C1.33227 39.6665 1.22396 39.8014 1.14702 39.979C1.07008 40.1554 1.03161 40.3696 1.03161 40.6218C1.03161 40.881 1.07008 41.0988 1.14702 41.2752C1.22514 41.4515 1.33404 41.5847 1.47372 41.6747C1.6134 41.7646 1.77498 41.8096 1.95845 41.8096C2.06143 41.8096 2.15672 41.796 2.24432 41.7688C2.3331 41.7416 2.41181 41.7019 2.48047 41.6498C2.54912 41.5965 2.60594 41.532 2.65092 41.4563C2.69709 41.3805 2.72905 41.2941 2.7468 41.197L3.5245 41.2006C3.50438 41.3675 3.45407 41.5285 3.37358 41.6835C3.29427 41.8374 3.18714 41.9753 3.0522 42.0973C2.91844 42.218 2.75864 42.3139 2.5728 42.3849C2.38814 42.4547 2.17921 42.4897 1.94602 42.4897C1.62169 42.4897 1.33168 42.4163 1.07599 42.2695C0.821496 42.1227 0.620265 41.9102 0.472301 41.6321C0.325521 41.3539 0.252131 41.0171 0.252131 40.6218C0.252131 40.2252 0.326705 39.8879 0.475852 39.6097C0.625 39.3315 0.827415 39.1196 1.0831 38.974C1.33878 38.8273 1.62642 38.7539 1.94602 38.7539C2.15672 38.7539 2.35204 38.7835 2.53196 38.8426C2.71307 38.9018 2.87346 38.9882 3.01314 39.1019C3.15282 39.2143 3.26645 39.3522 3.35405 39.5156C3.44283 39.6789 3.49964 39.866 3.5245 40.0767ZM4.06161 42.4399V39.7127H4.79492V40.1885H4.82333C4.87305 40.0193 4.9565 39.8914 5.07369 39.805C5.19087 39.7174 5.32582 39.6736 5.47852 39.6736C5.51639 39.6736 5.55723 39.676 5.60103 39.6807C5.64483 39.6854 5.6833 39.692 5.71644 39.7002V40.3714C5.68093 40.3608 5.63181 40.3513 5.56907 40.343C5.50633 40.3347 5.44892 40.3306 5.39684 40.3306C5.28557 40.3306 5.18614 40.3548 5.09854 40.4034C5.01213 40.4507 4.94348 40.517 4.89258 40.6022C4.84286 40.6875 4.818 40.7857 4.818 40.897V42.4399H4.06161ZM7.22346 42.4932C6.94292 42.4932 6.70144 42.4364 6.49902 42.3228C6.29779 42.2079 6.14273 42.0458 6.03382 41.8362C5.92492 41.6255 5.87047 41.3764 5.87047 41.0887C5.87047 40.8082 5.92492 40.562 6.03382 40.3501C6.14273 40.1382 6.29602 39.9731 6.4937 39.8547C6.69256 39.7363 6.92575 39.6772 7.19327 39.6772C7.37319 39.6772 7.54069 39.7062 7.69576 39.7642C7.85201 39.821 7.98813 39.9068 8.10414 40.0216C8.22132 40.1364 8.31247 40.2809 8.37757 40.4549C8.44268 40.6277 8.47523 40.8301 8.47523 41.0621V41.2698H6.17232V40.8011H7.76323C7.76323 40.6922 7.73955 40.5957 7.69221 40.5117C7.64486 40.4276 7.57916 40.3619 7.49512 40.3146C7.41226 40.2661 7.31578 40.2418 7.2057 40.2418C7.09088 40.2418 6.98908 40.2684 6.9003 40.3217C6.81271 40.3738 6.74405 40.4442 6.69434 40.533C6.64462 40.6206 6.61917 40.7182 6.61799 40.8259V41.2716C6.61799 41.4066 6.64284 41.5232 6.69256 41.6214C6.74346 41.7197 6.81507 41.7954 6.9074 41.8487C6.99973 41.9019 7.10923 41.9286 7.23588 41.9286C7.31993 41.9286 7.39687 41.9167 7.46671 41.8931C7.53655 41.8694 7.59632 41.8339 7.64604 41.7865C7.69576 41.7392 7.73364 41.6812 7.75968 41.6125L8.45925 41.6587C8.42374 41.8268 8.35094 41.9736 8.24086 42.099C8.13195 42.2233 7.99109 42.3204 7.81827 42.3902C7.64663 42.4589 7.44836 42.4932 7.22346 42.4932ZM9.74654 42.4914C9.57253 42.4914 9.41747 42.4612 9.28134 42.4009C9.14521 42.3393 9.03749 42.2488 8.95819 42.1292C8.88006 42.0085 8.841 41.8581 8.841 41.6782C8.841 41.5267 8.86882 41.3995 8.92445 41.2965C8.98008 41.1935 9.05584 41.1106 9.15172 41.0479C9.2476 40.9852 9.3565 40.9378 9.47843 40.9059C9.60153 40.8739 9.73056 40.8514 9.8655 40.8384C10.0241 40.8218 10.152 40.8064 10.249 40.7922C10.3461 40.7768 10.4165 40.7543 10.4603 40.7247C10.5041 40.6951 10.526 40.6514 10.526 40.5934V40.5827C10.526 40.4702 10.4905 40.3832 10.4195 40.3217C10.3496 40.2601 10.2502 40.2294 10.1212 40.2294C9.98506 40.2294 9.87675 40.2595 9.79625 40.3199C9.71576 40.3791 9.66249 40.4537 9.63645 40.5436L8.93688 40.4868C8.97239 40.3211 9.04223 40.1779 9.1464 40.0571C9.25056 39.9352 9.38491 39.8417 9.54945 39.7766C9.71517 39.7103 9.90693 39.6772 10.1247 39.6772C10.2762 39.6772 10.4213 39.6949 10.5597 39.7304C10.6994 39.7659 10.8231 39.821 10.9308 39.8956C11.0397 39.9701 11.1256 40.066 11.1883 40.1832C11.251 40.2992 11.2824 40.4383 11.2824 40.6005V42.4399H10.5651V42.0617H10.5438C10.5 42.147 10.4414 42.2221 10.368 42.2872C10.2946 42.3512 10.2064 42.4015 10.1034 42.4382C10.0004 42.4737 9.88148 42.4914 9.74654 42.4914ZM9.96316 41.9694C10.0744 41.9694 10.1727 41.9475 10.2579 41.9037C10.3431 41.8587 10.41 41.7984 10.4585 41.7226C10.5071 41.6469 10.5313 41.561 10.5313 41.4652V41.1757C10.5077 41.1911 10.4751 41.2053 10.4337 41.2184C10.3934 41.2302 10.3479 41.2414 10.297 41.2521C10.2461 41.2616 10.1952 41.2704 10.1443 41.2787C10.0934 41.2858 10.0472 41.2923 10.0058 41.2983C9.91699 41.3113 9.83946 41.332 9.77317 41.3604C9.70688 41.3888 9.65539 41.4273 9.6187 41.4758C9.582 41.5232 9.56365 41.5823 9.56365 41.6534C9.56365 41.7563 9.60094 41.8351 9.67551 41.8895C9.75127 41.9428 9.84715 41.9694 9.96316 41.9694ZM13.3199 39.7127V40.2809H11.6775V39.7127H13.3199ZM12.0503 39.0593H12.8067V41.6019C12.8067 41.6717 12.8174 41.7262 12.8387 41.7652C12.86 41.8031 12.8896 41.8297 12.9275 41.8451C12.9665 41.8605 13.0115 41.8682 13.0624 41.8682C13.0979 41.8682 13.1334 41.8652 13.1689 41.8593C13.2045 41.8522 13.2317 41.8469 13.2506 41.8434L13.3696 42.4062C13.3317 42.418 13.2784 42.4317 13.2098 42.447C13.1411 42.4636 13.0577 42.4737 12.9594 42.4772C12.7771 42.4843 12.6173 42.4601 12.48 42.4044C12.3439 42.3488 12.238 42.2624 12.1622 42.1452C12.0864 42.028 12.0492 41.88 12.0503 41.7013V39.0593ZM15.0262 42.4932C14.7456 42.4932 14.5042 42.4364 14.3018 42.3228C14.1005 42.2079 13.9455 42.0458 13.8366 41.8362C13.7277 41.6255 13.6732 41.3764 13.6732 41.0887C13.6732 40.8082 13.7277 40.562 13.8366 40.3501C13.9455 40.1382 14.0988 39.9731 14.2964 39.8547C14.4953 39.7363 14.7285 39.6772 14.996 39.6772C15.1759 39.6772 15.3434 39.7062 15.4985 39.7642C15.6547 39.821 15.7909 39.9068 15.9069 40.0216C16.0241 40.1364 16.1152 40.2809 16.1803 40.4549C16.2454 40.6277 16.278 40.8301 16.278 41.0621V41.2698H13.9751V40.8011H15.566C15.566 40.6922 15.5423 40.5957 15.4949 40.5117C15.4476 40.4276 15.3819 40.3619 15.2979 40.3146C15.215 40.2661 15.1185 40.2418 15.0084 40.2418C14.8936 40.2418 14.7918 40.2684 14.703 40.3217C14.6154 40.3738 14.5468 40.4442 14.4971 40.533C14.4474 40.6206 14.4219 40.7182 14.4207 40.8259V41.2716C14.4207 41.4066 14.4456 41.5232 14.4953 41.6214C14.5462 41.7197 14.6178 41.7954 14.7101 41.8487C14.8025 41.9019 14.912 41.9286 15.0386 41.9286C15.1227 41.9286 15.1996 41.9167 15.2694 41.8931C15.3393 41.8694 15.3991 41.8339 15.4488 41.7865C15.4985 41.7392 15.5364 41.6812 15.5624 41.6125L16.262 41.6587C16.2265 41.8268 16.1537 41.9736 16.0436 42.099C15.9347 42.2233 15.7938 42.3204 15.621 42.3902C15.4494 42.4589 15.2511 42.4932 15.0262 42.4932ZM17.7765 42.4843C17.5694 42.4843 17.3818 42.4311 17.2137 42.3245C17.0468 42.2168 16.9142 42.0588 16.816 41.8505C16.7189 41.6409 16.6704 41.3841 16.6704 41.0799C16.6704 40.7674 16.7207 40.5075 16.8213 40.3004C16.9219 40.092 17.0557 39.9364 17.2226 39.8334C17.3907 39.7292 17.5747 39.6772 17.7748 39.6772C17.9275 39.6772 18.0547 39.7032 18.1565 39.7553C18.2595 39.8062 18.3424 39.8701 18.4051 39.947C18.469 40.0228 18.5175 40.0974 18.5507 40.1708H18.5738V38.8036H19.3284V42.4399H18.5827V42.0032H18.5507C18.5152 42.0789 18.4649 42.1541 18.3998 42.2286C18.3358 42.302 18.2524 42.363 18.1494 42.4115C18.0476 42.4601 17.9233 42.4843 17.7765 42.4843ZM18.0162 41.8824C18.1382 41.8824 18.2412 41.8493 18.3252 41.783C18.4104 41.7155 18.4755 41.6214 18.5205 41.5007C18.5667 41.3799 18.5898 41.2385 18.5898 41.0763C18.5898 40.9141 18.5673 40.7733 18.5223 40.6537C18.4773 40.5342 18.4122 40.4418 18.327 40.3767C18.2417 40.3116 18.1382 40.2791 18.0162 40.2791C17.892 40.2791 17.7872 40.3128 17.702 40.3803C17.6167 40.4478 17.5522 40.5413 17.5084 40.6608C17.4646 40.7804 17.4427 40.9189 17.4427 41.0763C17.4427 41.2349 17.4646 41.3752 17.5084 41.4971C17.5534 41.6179 17.6179 41.7126 17.702 41.7812C17.7872 41.8487 17.892 41.8824 18.0162 41.8824ZM21.1217 42.4399V38.8036H21.8781V40.1708H21.9012C21.9343 40.0974 21.9823 40.0228 22.045 39.947C22.1089 39.8701 22.1918 39.8062 22.2936 39.7553C22.3966 39.7032 22.5244 39.6772 22.6771 39.6772C22.876 39.6772 23.0595 39.7292 23.2275 39.8334C23.3956 39.9364 23.53 40.092 23.6306 40.3004C23.7312 40.5075 23.7815 40.7674 23.7815 41.0799C23.7815 41.3841 23.7324 41.6409 23.6341 41.8505C23.5371 42.0588 23.4045 42.2168 23.2364 42.3245C23.0695 42.4311 22.8825 42.4843 22.6753 42.4843C22.5286 42.4843 22.4037 42.4601 22.3007 42.4115C22.1989 42.363 22.1154 42.302 22.0503 42.2286C21.9852 42.1541 21.9355 42.0789 21.9012 42.0032H21.8675V42.4399H21.1217ZM21.8621 41.0763C21.8621 41.2385 21.8846 41.3799 21.9296 41.5007C21.9746 41.6214 22.0397 41.7155 22.1249 41.783C22.2101 41.8493 22.3137 41.8824 22.4356 41.8824C22.5587 41.8824 22.6629 41.8487 22.7481 41.7812C22.8334 41.7126 22.8979 41.6179 22.9417 41.4971C22.9867 41.3752 23.0091 41.2349 23.0091 41.0763C23.0091 40.9189 22.9872 40.7804 22.9434 40.6608C22.8997 40.5413 22.8351 40.4478 22.7499 40.3803C22.6647 40.3128 22.5599 40.2791 22.4356 40.2791C22.3125 40.2791 22.2084 40.3116 22.1231 40.3767C22.0391 40.4418 21.9746 40.5342 21.9296 40.6537C21.8846 40.7733 21.8621 40.9141 21.8621 41.0763ZM24.6653 43.4627C24.5694 43.4627 24.4795 43.455 24.3954 43.4396C24.3126 43.4254 24.2439 43.407 24.1895 43.3845L24.3599 42.8199C24.4487 42.8471 24.5286 42.8619 24.5996 42.8643C24.6718 42.8667 24.734 42.8501 24.786 42.8146C24.8393 42.7791 24.8825 42.7187 24.9157 42.6335L24.96 42.5181L23.9817 39.7127H24.7772L25.3418 41.7155H25.3702L25.9402 39.7127H26.7409L25.6809 42.7347C25.63 42.8815 25.5608 43.0093 25.4732 43.1182C25.3868 43.2283 25.2773 43.3129 25.1447 43.3721C25.0121 43.4325 24.8523 43.4627 24.6653 43.4627ZM0.316051 44.8036H1.2642L2.26562 47.2468H2.30824L3.30966 44.8036H4.25781V48.4399H3.51207V46.0731H3.48189L2.54084 48.4222H2.03303L1.09197 46.0642H1.06179V48.4399H0.316051V44.8036ZM4.87704 48.4399V45.7127H5.63343V48.4399H4.87704ZM5.25701 45.3611C5.14456 45.3611 5.04809 45.3238 4.9676 45.2492C4.88829 45.1735 4.84863 45.0829 4.84863 44.9776C4.84863 44.8734 4.88829 44.784 4.9676 44.7095C5.04809 44.6337 5.14456 44.5958 5.25701 44.5958C5.36947 44.5958 5.46535 44.6337 5.54466 44.7095C5.62515 44.784 5.66539 44.8734 5.66539 44.9776C5.66539 45.0829 5.62515 45.1735 5.54466 45.2492C5.46535 45.3238 5.36947 45.3611 5.25701 45.3611ZM8.50852 46.4904L7.81605 46.533C7.80421 46.4738 7.77876 46.4205 7.7397 46.3732C7.70064 46.3246 7.64915 46.2862 7.58523 46.2578C7.52249 46.2282 7.44732 46.2134 7.35973 46.2134C7.24254 46.2134 7.1437 46.2382 7.06321 46.288C6.98272 46.3365 6.94247 46.4016 6.94247 46.4833C6.94247 46.5484 6.96851 46.6034 7.0206 46.6484C7.07268 46.6934 7.16205 46.7295 7.28871 46.7567L7.78232 46.8561C8.04747 46.9106 8.24515 46.9982 8.37536 47.1189C8.50556 47.2397 8.57067 47.3983 8.57067 47.5948C8.57067 47.7735 8.51799 47.9304 8.41264 48.0653C8.30848 48.2002 8.16525 48.3056 7.98295 48.3813C7.80185 48.4559 7.59292 48.4932 7.35618 48.4932C6.99515 48.4932 6.7075 48.418 6.49325 48.2677C6.28018 48.1162 6.1553 47.9102 6.11861 47.6498L6.86257 47.6108C6.88506 47.7208 6.93951 47.8049 7.02592 47.8629C7.11233 47.9197 7.22301 47.9481 7.35795 47.9481C7.49053 47.9481 7.59706 47.9227 7.67756 47.8718C7.75923 47.8197 7.80066 47.7528 7.80185 47.6711C7.80066 47.6025 7.77166 47.5462 7.71484 47.5024C7.65803 47.4575 7.57043 47.4231 7.45206 47.3995L6.97976 47.3054C6.71342 47.2521 6.51515 47.1598 6.38494 47.0284C6.25592 46.897 6.19141 46.7295 6.19141 46.5259C6.19141 46.3507 6.23875 46.1998 6.33345 46.0731C6.42933 45.9465 6.56368 45.8488 6.73651 45.7801C6.91051 45.7115 7.11411 45.6772 7.3473 45.6772C7.69176 45.6772 7.96283 45.75 8.16051 45.8956C8.35938 46.0411 8.47538 46.2394 8.50852 46.4904ZM10.4976 45.7127V46.2809H8.8552V45.7127H10.4976ZM9.22807 45.0593H9.98446V47.6019C9.98446 47.6717 9.99512 47.7262 10.0164 47.7652C10.0377 47.8031 10.0673 47.8297 10.1052 47.8451C10.1443 47.8605 10.1892 47.8682 10.2401 47.8682C10.2757 47.8682 10.3112 47.8652 10.3467 47.8593C10.3822 47.8522 10.4094 47.8469 10.4284 47.8434L10.5473 48.4062C10.5094 48.418 10.4562 48.4317 10.3875 48.447C10.3189 48.4636 10.2354 48.4737 10.1372 48.4772C9.95487 48.4843 9.79507 48.4601 9.65776 48.4044C9.52163 48.3488 9.41569 48.2624 9.33993 48.1452C9.26417 48.028 9.22689 47.88 9.22807 47.7013V45.0593ZM12.2039 48.4932C11.9234 48.4932 11.6819 48.4364 11.4795 48.3228C11.2783 48.2079 11.1232 48.0458 11.0143 47.8362C10.9054 47.6255 10.8509 47.3764 10.8509 47.0887C10.8509 46.8082 10.9054 46.562 11.0143 46.3501C11.1232 46.1382 11.2765 45.9731 11.4742 45.8547C11.673 45.7363 11.9062 45.6772 12.1737 45.6772C12.3537 45.6772 12.5212 45.7062 12.6762 45.7642C12.8325 45.821 12.9686 45.9068 13.0846 46.0216C13.2018 46.1364 13.2929 46.2809 13.358 46.4549C13.4231 46.6277 13.4557 46.8301 13.4557 47.0621V47.2698H11.1528V46.8011H12.7437C12.7437 46.6922 12.72 46.5957 12.6727 46.5117C12.6253 46.4276 12.5596 46.3619 12.4756 46.3146C12.3927 46.2661 12.2963 46.2418 12.1862 46.2418C12.0713 46.2418 11.9695 46.2684 11.8808 46.3217C11.7932 46.3738 11.7245 46.4442 11.6748 46.533C11.6251 46.6206 11.5996 46.7182 11.5985 46.8259V47.2716C11.5985 47.4066 11.6233 47.5232 11.673 47.6214C11.7239 47.7197 11.7955 47.7954 11.8879 47.8487C11.9802 47.9019 12.0897 47.9286 12.2164 47.9286C12.3004 47.9286 12.3773 47.9167 12.4472 47.8931C12.517 47.8694 12.5768 47.8339 12.6265 47.7865C12.6762 47.7392 12.7141 47.6812 12.7401 47.6125L13.4397 47.6587C13.4042 47.8268 13.3314 47.9736 13.2213 48.099C13.1124 48.2233 12.9716 48.3204 12.7987 48.3902C12.6271 48.4589 12.4288 48.4932 12.2039 48.4932ZM13.9493 48.4399V45.7127H14.6826V46.1885H14.711C14.7607 46.0193 14.8442 45.8914 14.9614 45.805C15.0786 45.7174 15.2135 45.6736 15.3662 45.6736C15.4041 45.6736 15.4449 45.676 15.4887 45.6807C15.5325 45.6854 15.571 45.692 15.6041 45.7002V46.3714C15.5686 46.3608 15.5195 46.3513 15.4568 46.343C15.394 46.3347 15.3366 46.3306 15.2845 46.3306C15.1733 46.3306 15.0738 46.3548 14.9862 46.4034C14.8998 46.4507 14.8312 46.517 14.7803 46.6022C14.7306 46.6875 14.7057 46.7857 14.7057 46.897V48.4399H13.9493ZM17.1666 48.4399V44.8036H18.6013C18.8771 44.8036 19.1121 44.8563 19.3062 44.9616C19.5003 45.0658 19.6483 45.2108 19.7501 45.3966C19.8531 45.5813 19.9046 45.7943 19.9046 46.0358C19.9046 46.2773 19.8525 46.4904 19.7483 46.675C19.6441 46.8597 19.4932 47.0035 19.2955 47.1065C19.099 47.2095 18.8611 47.261 18.5818 47.261H17.6673V46.6448H18.4575C18.6054 46.6448 18.7274 46.6194 18.8232 46.5685C18.9203 46.5164 18.9925 46.4448 19.0399 46.3536C19.0884 46.2613 19.1127 46.1554 19.1127 46.0358C19.1127 45.9151 19.0884 45.8097 19.0399 45.7198C18.9925 45.6286 18.9203 45.5582 18.8232 45.5085C18.7262 45.4576 18.6031 45.4321 18.4539 45.4321H17.9355V48.4399H17.1666ZM20.3897 48.4399V45.7127H21.1461V48.4399H20.3897ZM20.7697 45.3611C20.6573 45.3611 20.5608 45.3238 20.4803 45.2492C20.401 45.1735 20.3613 45.0829 20.3613 44.9776C20.3613 44.8734 20.401 44.784 20.4803 44.7095C20.5608 44.6337 20.6573 44.5958 20.7697 44.5958C20.8822 44.5958 20.978 44.6337 21.0574 44.7095C21.1378 44.784 21.1781 44.8734 21.1781 44.9776C21.1781 45.0829 21.1378 45.1735 21.0574 45.2492C20.978 45.3238 20.8822 45.3611 20.7697 45.3611ZM22.3841 45.7127L22.8849 46.6661L23.398 45.7127H24.1739L23.3838 47.0763L24.1952 48.4399H23.4229L22.8849 47.4971L22.3557 48.4399H21.5745L22.3841 47.0763L21.6029 45.7127H22.3841ZM25.7684 48.4932C25.4878 48.4932 25.2464 48.4364 25.0439 48.3228C24.8427 48.2079 24.6876 48.0458 24.5787 47.8362C24.4698 47.6255 24.4154 47.3764 24.4154 47.0887C24.4154 46.8082 24.4698 46.562 24.5787 46.3501C24.6876 46.1382 24.8409 45.9731 25.0386 45.8547C25.2375 45.7363 25.4707 45.6772 25.7382 45.6772C25.9181 45.6772 26.0856 45.7062 26.2407 45.7642C26.3969 45.821 26.5331 45.9068 26.6491 46.0216C26.7662 46.1364 26.8574 46.2809 26.9225 46.4549C26.9876 46.6277 27.0202 46.8301 27.0202 47.0621V47.2698H24.7172V46.8011H26.3081C26.3081 46.6922 26.2845 46.5957 26.2371 46.5117C26.1898 46.4276 26.1241 46.3619 26.04 46.3146C25.9572 46.2661 25.8607 46.2418 25.7506 46.2418C25.6358 46.2418 25.534 46.2684 25.4452 46.3217C25.3576 46.3738 25.289 46.4442 25.2393 46.533C25.1895 46.6206 25.1641 46.7182 25.1629 46.8259V47.2716C25.1629 47.4066 25.1878 47.5232 25.2375 47.6214C25.2884 47.7197 25.36 47.7954 25.4523 47.8487C25.5447 47.9019 25.6541 47.9286 25.7808 47.9286C25.8648 47.9286 25.9418 47.9167 26.0116 47.8931C26.0815 47.8694 26.1412 47.8339 26.191 47.7865C26.2407 47.7392 26.2786 47.6812 26.3046 47.6125L27.0042 47.6587C26.9687 47.8268 26.8959 47.9736 26.7858 48.099C26.6769 48.2233 26.536 48.3204 26.3632 48.3902C26.1916 48.4589 25.9933 48.4932 25.7684 48.4932ZM28.2702 44.8036V48.4399H27.5138V44.8036H28.2702Z" fill="#E76172"/>
</g>
<defs>
<clipPath id="clip0_243_1048">
<rect width="30" height="39" fill="white"/>
</clipPath>
</defs>
</svg>
