<svg width="35" height="35" viewBox="0 0 35 35" fill="none" xmlns="http://www.w3.org/2000/svg">
<path d="M7.29167 32.0833C6.48958 32.0833 5.80319 31.7979 5.2325 31.2272C4.66181 30.6566 4.37597 29.9697 4.375 29.1666V8.74996C4.375 7.94788 4.66083 7.26149 5.2325 6.69079C5.80417 6.1201 6.49056 5.83426 7.29167 5.83329H8.75V2.91663H11.6667V5.83329H23.3333V2.91663H26.25V5.83329H27.7083C28.5104 5.83329 29.1973 6.11913 29.769 6.69079C30.3406 7.26246 30.626 7.94885 30.625 8.74996V15.5677C30.625 15.9809 30.485 16.3275 30.205 16.6075C29.925 16.8875 29.5789 17.027 29.1667 17.026C28.7544 17.025 28.4083 16.885 28.1283 16.606C27.8483 16.327 27.7083 15.9809 27.7083 15.5677V14.5833H7.29167V29.1666H15.75C16.1632 29.1666 16.5098 29.3066 16.7898 29.5866C17.0698 29.8666 17.2093 30.2127 17.2083 30.625C17.2074 31.0372 17.0674 31.3838 16.7883 31.6647C16.5093 31.9457 16.1632 32.0852 15.75 32.0833H7.29167ZM21.0919 31.4095C19.6695 29.9872 18.9583 28.2673 18.9583 26.25C18.9583 24.2326 19.6695 22.5132 21.0919 21.0918C22.5142 19.6704 24.2336 18.9593 26.25 18.9583C28.2664 18.9573 29.9862 19.6685 31.4096 21.0918C32.8329 22.5152 33.5436 24.2345 33.5417 26.25C33.5397 28.2654 32.8285 29.9852 31.4081 31.4095C29.9877 32.8338 28.2683 33.5445 26.25 33.5416C24.2317 33.5387 22.5123 32.829 21.0919 31.4095ZM28.6927 29.7135L29.7135 28.6927L26.9792 25.9583V21.875H25.5208V26.5416L28.6927 29.7135Z" fill="#E76172"/>
</svg>
