<svg width="52" height="52" viewBox="0 0 52 52" fill="none" xmlns="http://www.w3.org/2000/svg">
<circle cx="25.8579" cy="25.8581" r="24" transform="rotate(-2.00159 25.8579 25.8581)" stroke="#FFA1AD" stroke-width="2"/>
<path fill-rule="evenodd" clip-rule="evenodd" d="M26.7827 19.8225L28.6465 19.7573L28.5417 16.7592L26.6779 16.8243C25.5805 16.864 24.5436 17.3373 23.7947 18.1404C23.0458 18.9436 22.6461 20.0109 22.6831 21.1084L22.748 22.9653L20.7562 23.0349L20.861 26.0331L22.8598 25.9632L23.2069 35.8952L26.205 35.7904L25.8579 25.8584L27.8777 25.7879L28.3645 22.769L25.7531 22.8603L25.669 20.4527C25.6659 20.2966 25.7238 20.1453 25.8304 20.0312C25.937 19.917 26.084 19.849 26.24 19.8414L26.7827 19.8225Z" fill="#7D7777"/>
</svg>
