<svg width="272" height="83" viewBox="0 0 272 83" fill="none" xmlns="http://www.w3.org/2000/svg">
<g clip-path="url(#clip0_243_1073)">
<path fill-rule="evenodd" clip-rule="evenodd" d="M165 31.9233C157.219 31.9233 150.888 38.5072 150.888 46.5998C150.888 47.3823 150.949 48.1723 151.069 48.9479C152.175 56.0915 158.034 61.2763 165 61.2763C171.969 61.2763 177.828 56.0915 178.933 48.9479C179.052 48.1785 179.112 47.3892 179.112 46.5998C179.112 38.5072 172.782 31.9233 165 31.9233ZM171.511 56.7373C169.587 58.0802 167.336 58.7897 165 58.7897C159.49 58.7897 154.789 54.8909 153.571 49.3105C153.377 48.4281 153.279 47.5165 153.279 46.5998C153.279 44.1768 153.961 41.8356 155.252 39.8294L155.82 38.9477L160.83 44.1569L160.845 49.1195C160.833 50.0156 162.462 50.3251 162.565 49.1152V45.9621L162.752 46.1568L162.702 56.4902C162.679 57.4468 164.631 57.7588 164.802 56.4453L164.797 48.2834L165.072 48.5704L165.115 56.5751C165.1 57.5997 167.102 57.581 167.169 56.1938L167.151 50.7319L172.359 56.147L171.511 56.7373ZM167.124 42.4908L167.318 42.5607V47.1134L167.139 46.9262L167.124 42.4908ZM176.431 49.3092C176.116 50.7563 175.551 52.1228 174.75 53.3696L174.183 54.2551L169.117 48.9854C169.123 48.9467 169.13 48.9117 169.132 48.8693L169.181 41.2721C169.181 40.1814 168.371 39.4868 167.403 39.3727H162.549C161.814 39.4138 161.182 39.8338 160.935 40.4734L157.644 37.0489L158.493 36.4586C160.424 35.117 162.674 34.4075 165 34.4075C171.464 34.4075 176.724 39.8775 176.724 46.5998C176.724 47.5146 176.625 48.4269 176.431 49.3092Z" fill="#FF637E"/>
<path fill-rule="evenodd" clip-rule="evenodd" d="M165.166 35.8774C164.315 35.8774 163.625 36.605 163.625 37.5048C163.625 38.4046 164.315 39.1322 165.166 39.1322C166.018 39.1322 166.712 38.4046 166.712 37.5048C166.712 36.605 166.018 35.8774 165.166 35.8774Z" fill="#FF637E"/>
<path d="M153.525 71.0767H152.747C152.733 70.976 152.704 70.8867 152.66 70.8085C152.616 70.7292 152.56 70.6618 152.491 70.6061C152.422 70.5505 152.343 70.5079 152.253 70.4783C152.164 70.4487 152.068 70.4339 151.964 70.4339C151.776 70.4339 151.612 70.4807 151.472 70.5742C151.332 70.6665 151.224 70.8014 151.147 70.979C151.07 71.1554 151.032 71.3696 151.032 71.6218C151.032 71.881 151.07 72.0988 151.147 72.2752C151.225 72.4515 151.334 72.5847 151.474 72.6747C151.613 72.7646 151.775 72.8096 151.958 72.8096C152.061 72.8096 152.157 72.796 152.244 72.7688C152.333 72.7416 152.412 72.7019 152.48 72.6498C152.549 72.5965 152.606 72.532 152.651 72.4563C152.697 72.3805 152.729 72.2941 152.747 72.197L153.525 72.2006C153.504 72.3675 153.454 72.5285 153.374 72.6835C153.294 72.8374 153.187 72.9753 153.052 73.0973C152.918 73.218 152.759 73.3139 152.573 73.3849C152.388 73.4547 152.179 73.4897 151.946 73.4897C151.622 73.4897 151.332 73.4163 151.076 73.2695C150.821 73.1227 150.62 72.9102 150.472 72.6321C150.326 72.3539 150.252 72.0171 150.252 71.6218C150.252 71.2252 150.327 70.8879 150.476 70.6097C150.625 70.3315 150.827 70.1196 151.083 69.974C151.339 69.8273 151.626 69.7539 151.946 69.7539C152.157 69.7539 152.352 69.7835 152.532 69.8426C152.713 69.9018 152.873 69.9882 153.013 70.1019C153.153 70.2143 153.266 70.3522 153.354 70.5156C153.443 70.6789 153.5 70.866 153.525 71.0767ZM154.062 73.4399V70.7127H154.795V71.1885H154.823C154.873 71.0193 154.956 70.8914 155.074 70.805C155.191 70.7174 155.326 70.6736 155.479 70.6736C155.516 70.6736 155.557 70.676 155.601 70.6807C155.645 70.6854 155.683 70.692 155.716 70.7002V71.3714C155.681 71.3608 155.632 71.3513 155.569 71.343C155.506 71.3347 155.449 71.3306 155.397 71.3306C155.286 71.3306 155.186 71.3548 155.099 71.4034C155.012 71.4507 154.943 71.517 154.893 71.6022C154.843 71.6875 154.818 71.7857 154.818 71.897V73.4399H154.062ZM157.223 73.4932C156.943 73.4932 156.701 73.4364 156.499 73.3228C156.298 73.2079 156.143 73.0458 156.034 72.8362C155.925 72.6255 155.87 72.3764 155.87 72.0887C155.87 71.8082 155.925 71.562 156.034 71.3501C156.143 71.1382 156.296 70.9731 156.494 70.8547C156.693 70.7363 156.926 70.6772 157.193 70.6772C157.373 70.6772 157.541 70.7062 157.696 70.7642C157.852 70.821 157.988 70.9068 158.104 71.0216C158.221 71.1364 158.312 71.2809 158.378 71.4549C158.443 71.6277 158.475 71.8301 158.475 72.0621V72.2698H156.172V71.8011H157.763C157.763 71.6922 157.74 71.5957 157.692 71.5117C157.645 71.4276 157.579 71.3619 157.495 71.3146C157.412 71.2661 157.316 71.2418 157.206 71.2418C157.091 71.2418 156.989 71.2684 156.9 71.3217C156.813 71.3738 156.744 71.4442 156.694 71.533C156.645 71.6206 156.619 71.7182 156.618 71.8259V72.2716C156.618 72.4066 156.643 72.5232 156.693 72.6214C156.743 72.7197 156.815 72.7954 156.907 72.8487C157 72.9019 157.109 72.9286 157.236 72.9286C157.32 72.9286 157.397 72.9167 157.467 72.8931C157.537 72.8694 157.596 72.8339 157.646 72.7865C157.696 72.7392 157.734 72.6812 157.76 72.6125L158.459 72.6587C158.424 72.8268 158.351 72.9736 158.241 73.099C158.132 73.2233 157.991 73.3204 157.818 73.3902C157.647 73.4589 157.448 73.4932 157.223 73.4932ZM159.747 73.4914C159.573 73.4914 159.417 73.4612 159.281 73.4009C159.145 73.3393 159.037 73.2488 158.958 73.1292C158.88 73.0085 158.841 72.8581 158.841 72.6782C158.841 72.5267 158.869 72.3995 158.924 72.2965C158.98 72.1935 159.056 72.1106 159.152 72.0479C159.248 71.9852 159.357 71.9378 159.478 71.9059C159.602 71.8739 159.731 71.8514 159.866 71.8384C160.024 71.8218 160.152 71.8064 160.249 71.7922C160.346 71.7768 160.417 71.7543 160.46 71.7247C160.504 71.6951 160.526 71.6514 160.526 71.5934V71.5827C160.526 71.4702 160.491 71.3832 160.419 71.3217C160.35 71.2601 160.25 71.2294 160.121 71.2294C159.985 71.2294 159.877 71.2595 159.796 71.3199C159.716 71.3791 159.662 71.4537 159.636 71.5436L158.937 71.4868C158.972 71.3211 159.042 71.1779 159.146 71.0571C159.251 70.9352 159.385 70.8417 159.549 70.7766C159.715 70.7103 159.907 70.6772 160.125 70.6772C160.276 70.6772 160.421 70.6949 160.56 70.7304C160.699 70.7659 160.823 70.821 160.931 70.8956C161.04 70.9701 161.126 71.066 161.188 71.1832C161.251 71.2992 161.282 71.4383 161.282 71.6005V73.4399H160.565V73.0617H160.544C160.5 73.147 160.441 73.2221 160.368 73.2872C160.295 73.3512 160.206 73.4015 160.103 73.4382C160 73.4737 159.881 73.4914 159.747 73.4914ZM159.963 72.9694C160.074 72.9694 160.173 72.9475 160.258 72.9037C160.343 72.8587 160.41 72.7984 160.459 72.7226C160.507 72.6469 160.531 72.561 160.531 72.4652V72.1757C160.508 72.1911 160.475 72.2053 160.434 72.2184C160.393 72.2302 160.348 72.2414 160.297 72.2521C160.246 72.2616 160.195 72.2704 160.144 72.2787C160.093 72.2858 160.047 72.2923 160.006 72.2983C159.917 72.3113 159.839 72.332 159.773 72.3604C159.707 72.3888 159.655 72.4273 159.619 72.4758C159.582 72.5232 159.564 72.5823 159.564 72.6534C159.564 72.7563 159.601 72.8351 159.676 72.8895C159.751 72.9428 159.847 72.9694 159.963 72.9694ZM163.32 70.7127V71.2809H161.677V70.7127H163.32ZM162.05 70.0593H162.807V72.6019C162.807 72.6717 162.817 72.7262 162.839 72.7652C162.86 72.8031 162.89 72.8297 162.927 72.8451C162.967 72.8605 163.012 72.8682 163.062 72.8682C163.098 72.8682 163.133 72.8652 163.169 72.8593C163.204 72.8522 163.232 72.8469 163.251 72.8434L163.37 73.4062C163.332 73.418 163.278 73.4317 163.21 73.447C163.141 73.4636 163.058 73.4737 162.959 73.4772C162.777 73.4843 162.617 73.4601 162.48 73.4044C162.344 73.3488 162.238 73.2624 162.162 73.1452C162.086 73.028 162.049 72.88 162.05 72.7013V70.0593ZM165.026 73.4932C164.746 73.4932 164.504 73.4364 164.302 73.3228C164.101 73.2079 163.945 73.0458 163.837 72.8362C163.728 72.6255 163.673 72.3764 163.673 72.0887C163.673 71.8082 163.728 71.562 163.837 71.3501C163.945 71.1382 164.099 70.9731 164.296 70.8547C164.495 70.7363 164.728 70.6772 164.996 70.6772C165.176 70.6772 165.343 70.7062 165.498 70.7642C165.655 70.821 165.791 70.9068 165.907 71.0216C166.024 71.1364 166.115 71.2809 166.18 71.4549C166.245 71.6277 166.278 71.8301 166.278 72.0621V72.2698H163.975V71.8011H165.566C165.566 71.6922 165.542 71.5957 165.495 71.5117C165.448 71.4276 165.382 71.3619 165.298 71.3146C165.215 71.2661 165.119 71.2418 165.008 71.2418C164.894 71.2418 164.792 71.2684 164.703 71.3217C164.615 71.3738 164.547 71.4442 164.497 71.533C164.447 71.6206 164.422 71.7182 164.421 71.8259V72.2716C164.421 72.4066 164.446 72.5232 164.495 72.6214C164.546 72.7197 164.618 72.7954 164.71 72.8487C164.802 72.9019 164.912 72.9286 165.039 72.9286C165.123 72.9286 165.2 72.9167 165.269 72.8931C165.339 72.8694 165.399 72.8339 165.449 72.7865C165.498 72.7392 165.536 72.6812 165.562 72.6125L166.262 72.6587C166.226 72.8268 166.154 72.9736 166.044 73.099C165.935 73.2233 165.794 73.3204 165.621 73.3902C165.449 73.4589 165.251 73.4932 165.026 73.4932ZM167.777 73.4843C167.569 73.4843 167.382 73.4311 167.214 73.3245C167.047 73.2168 166.914 73.0588 166.816 72.8505C166.719 72.6409 166.67 72.3841 166.67 72.0799C166.67 71.7674 166.721 71.5075 166.821 71.3004C166.922 71.092 167.056 70.9364 167.223 70.8334C167.391 70.7292 167.575 70.6772 167.775 70.6772C167.927 70.6772 168.055 70.7032 168.157 70.7553C168.259 70.8062 168.342 70.8701 168.405 70.947C168.469 71.0228 168.518 71.0974 168.551 71.1708H168.574V69.8036H169.328V73.4399H168.583V73.0032H168.551C168.515 73.0789 168.465 73.1541 168.4 73.2286C168.336 73.302 168.252 73.363 168.149 73.4115C168.048 73.4601 167.923 73.4843 167.777 73.4843ZM168.016 72.8824C168.138 72.8824 168.241 72.8493 168.325 72.783C168.41 72.7155 168.476 72.6214 168.521 72.5007C168.567 72.3799 168.59 72.2385 168.59 72.0763C168.59 71.9141 168.567 71.7733 168.522 71.6537C168.477 71.5342 168.412 71.4418 168.327 71.3767C168.242 71.3116 168.138 71.2791 168.016 71.2791C167.892 71.2791 167.787 71.3128 167.702 71.3803C167.617 71.4478 167.552 71.5413 167.508 71.6608C167.465 71.7804 167.443 71.9189 167.443 72.0763C167.443 72.2349 167.465 72.3752 167.508 72.4971C167.553 72.6179 167.618 72.7126 167.702 72.7812C167.787 72.8487 167.892 72.8824 168.016 72.8824ZM171.122 73.4399V69.8036H171.878V71.1708H171.901C171.934 71.0974 171.982 71.0228 172.045 70.947C172.109 70.8701 172.192 70.8062 172.294 70.7553C172.397 70.7032 172.524 70.6772 172.677 70.6772C172.876 70.6772 173.059 70.7292 173.228 70.8334C173.396 70.9364 173.53 71.092 173.631 71.3004C173.731 71.5075 173.782 71.7674 173.782 72.0799C173.782 72.3841 173.732 72.6409 173.634 72.8505C173.537 73.0588 173.405 73.2168 173.236 73.3245C173.07 73.4311 172.882 73.4843 172.675 73.4843C172.529 73.4843 172.404 73.4601 172.301 73.4115C172.199 73.363 172.115 73.302 172.05 73.2286C171.985 73.1541 171.936 73.0789 171.901 73.0032H171.867V73.4399H171.122ZM171.862 72.0763C171.862 72.2385 171.885 72.3799 171.93 72.5007C171.975 72.6214 172.04 72.7155 172.125 72.783C172.21 72.8493 172.314 72.8824 172.436 72.8824C172.559 72.8824 172.663 72.8487 172.748 72.7812C172.833 72.7126 172.898 72.6179 172.942 72.4971C172.987 72.3752 173.009 72.2349 173.009 72.0763C173.009 71.9189 172.987 71.7804 172.943 71.6608C172.9 71.5413 172.835 71.4478 172.75 71.3803C172.665 71.3128 172.56 71.2791 172.436 71.2791C172.313 71.2791 172.208 71.3116 172.123 71.3767C172.039 71.4418 171.975 71.5342 171.93 71.6537C171.885 71.7733 171.862 71.9141 171.862 72.0763ZM174.665 74.4627C174.569 74.4627 174.479 74.455 174.395 74.4396C174.313 74.4254 174.244 74.407 174.189 74.3845L174.36 73.8199C174.449 73.8471 174.529 73.8619 174.6 73.8643C174.672 73.8667 174.734 73.8501 174.786 73.8146C174.839 73.7791 174.883 73.7187 174.916 73.6335L174.96 73.5181L173.982 70.7127H174.777L175.342 72.7155H175.37L175.94 70.7127H176.741L175.681 73.7347C175.63 73.8815 175.561 74.0093 175.473 74.1182C175.387 74.2283 175.277 74.3129 175.145 74.3721C175.012 74.4325 174.852 74.4627 174.665 74.4627ZM150.316 75.8036H151.264L152.266 78.2468H152.308L153.31 75.8036H154.258V79.4399H153.512V77.0731H153.482L152.541 79.4222H152.033L151.092 77.0642H151.062V79.4399H150.316V75.8036ZM154.877 79.4399V76.7127H155.633V79.4399H154.877ZM155.257 76.3611C155.145 76.3611 155.048 76.3238 154.968 76.2492C154.888 76.1735 154.849 76.0829 154.849 75.9776C154.849 75.8734 154.888 75.784 154.968 75.7095C155.048 75.6337 155.145 75.5958 155.257 75.5958C155.369 75.5958 155.465 75.6337 155.545 75.7095C155.625 75.784 155.665 75.8734 155.665 75.9776C155.665 76.0829 155.625 76.1735 155.545 76.2492C155.465 76.3238 155.369 76.3611 155.257 76.3611ZM158.509 77.4904L157.816 77.533C157.804 77.4738 157.779 77.4205 157.74 77.3732C157.701 77.3246 157.649 77.2862 157.585 77.2578C157.522 77.2282 157.447 77.2134 157.36 77.2134C157.243 77.2134 157.144 77.2382 157.063 77.288C156.983 77.3365 156.942 77.4016 156.942 77.4833C156.942 77.5484 156.969 77.6034 157.021 77.6484C157.073 77.6934 157.162 77.7295 157.289 77.7567L157.782 77.8561C158.047 77.9106 158.245 77.9982 158.375 78.1189C158.506 78.2397 158.571 78.3983 158.571 78.5948C158.571 78.7735 158.518 78.9304 158.413 79.0653C158.308 79.2002 158.165 79.3056 157.983 79.3813C157.802 79.4559 157.593 79.4932 157.356 79.4932C156.995 79.4932 156.708 79.418 156.493 79.2677C156.28 79.1162 156.155 78.9102 156.119 78.6498L156.863 78.6108C156.885 78.7208 156.94 78.8049 157.026 78.8629C157.112 78.9197 157.223 78.9481 157.358 78.9481C157.491 78.9481 157.597 78.9227 157.678 78.8718C157.759 78.8197 157.801 78.7528 157.802 78.6711C157.801 78.6025 157.772 78.5462 157.715 78.5024C157.658 78.4575 157.57 78.4231 157.452 78.3995L156.98 78.3054C156.713 78.2521 156.515 78.1598 156.385 78.0284C156.256 77.897 156.191 77.7295 156.191 77.5259C156.191 77.3507 156.239 77.1998 156.333 77.0731C156.429 76.9465 156.564 76.8488 156.737 76.7801C156.911 76.7115 157.114 76.6772 157.347 76.6772C157.692 76.6772 157.963 76.75 158.161 76.8956C158.359 77.0411 158.475 77.2394 158.509 77.4904ZM160.498 76.7127V77.2809H158.855V76.7127H160.498ZM159.228 76.0593H159.984V78.6019C159.984 78.6717 159.995 78.7262 160.016 78.7652C160.038 78.8031 160.067 78.8297 160.105 78.8451C160.144 78.8605 160.189 78.8682 160.24 78.8682C160.276 78.8682 160.311 78.8652 160.347 78.8593C160.382 78.8522 160.409 78.8469 160.428 78.8434L160.547 79.4062C160.509 79.418 160.456 79.4317 160.388 79.447C160.319 79.4636 160.235 79.4737 160.137 79.4772C159.955 79.4843 159.795 79.4601 159.658 79.4044C159.522 79.3488 159.416 79.2624 159.34 79.1452C159.264 79.028 159.227 78.88 159.228 78.7013V76.0593ZM162.204 79.4932C161.923 79.4932 161.682 79.4364 161.479 79.3228C161.278 79.2079 161.123 79.0458 161.014 78.8362C160.905 78.6255 160.851 78.3764 160.851 78.0887C160.851 77.8082 160.905 77.562 161.014 77.3501C161.123 77.1382 161.276 76.9731 161.474 76.8547C161.673 76.7363 161.906 76.6772 162.174 76.6772C162.354 76.6772 162.521 76.7062 162.676 76.7642C162.832 76.821 162.969 76.9068 163.085 77.0216C163.202 77.1364 163.293 77.2809 163.358 77.4549C163.423 77.6277 163.456 77.8301 163.456 78.0621V78.2698H161.153V77.8011H162.744C162.744 77.6922 162.72 77.5957 162.673 77.5117C162.625 77.4276 162.56 77.3619 162.476 77.3146C162.393 77.2661 162.296 77.2418 162.186 77.2418C162.071 77.2418 161.97 77.2684 161.881 77.3217C161.793 77.3738 161.725 77.4442 161.675 77.533C161.625 77.6206 161.6 77.7182 161.598 77.8259V78.2716C161.598 78.4066 161.623 78.5232 161.673 78.6214C161.724 78.7197 161.796 78.7954 161.888 78.8487C161.98 78.9019 162.09 78.9286 162.216 78.9286C162.3 78.9286 162.377 78.9167 162.447 78.8931C162.517 78.8694 162.577 78.8339 162.627 78.7865C162.676 78.7392 162.714 78.6812 162.74 78.6125L163.44 78.6587C163.404 78.8268 163.331 78.9736 163.221 79.099C163.112 79.2233 162.972 79.3204 162.799 79.3902C162.627 79.4589 162.429 79.4932 162.204 79.4932ZM163.949 79.4399V76.7127H164.683V77.1885H164.711C164.761 77.0193 164.844 76.8914 164.961 76.805C165.079 76.7174 165.214 76.6736 165.366 76.6736C165.404 76.6736 165.445 76.676 165.489 76.6807C165.533 76.6854 165.571 76.692 165.604 76.7002V77.3714C165.569 77.3608 165.52 77.3513 165.457 77.343C165.394 77.3347 165.337 77.3306 165.285 77.3306C165.173 77.3306 165.074 77.3548 164.986 77.4034C164.9 77.4507 164.831 77.517 164.78 77.6022C164.731 77.6875 164.706 77.7857 164.706 77.897V79.4399H163.949ZM167.167 79.4399V75.8036H168.601C168.877 75.8036 169.112 75.8563 169.306 75.9616C169.5 76.0658 169.648 76.2108 169.75 76.3966C169.853 76.5813 169.905 76.7943 169.905 77.0358C169.905 77.2773 169.852 77.4904 169.748 77.675C169.644 77.8597 169.493 78.0035 169.296 78.1065C169.099 78.2095 168.861 78.261 168.582 78.261H167.667V77.6448H168.457C168.605 77.6448 168.727 77.6194 168.823 77.5685C168.92 77.5164 168.993 77.4448 169.04 77.3536C169.088 77.2613 169.113 77.1554 169.113 77.0358C169.113 76.9151 169.088 76.8097 169.04 76.7198C168.993 76.6286 168.92 76.5582 168.823 76.5085C168.726 76.4576 168.603 76.4321 168.454 76.4321H167.935V79.4399H167.167ZM170.39 79.4399V76.7127H171.146V79.4399H170.39ZM170.77 76.3611C170.657 76.3611 170.561 76.3238 170.48 76.2492C170.401 76.1735 170.361 76.0829 170.361 75.9776C170.361 75.8734 170.401 75.784 170.48 75.7095C170.561 75.6337 170.657 75.5958 170.77 75.5958C170.882 75.5958 170.978 75.6337 171.057 75.7095C171.138 75.784 171.178 75.8734 171.178 75.9776C171.178 76.0829 171.138 76.1735 171.057 76.2492C170.978 76.3238 170.882 76.3611 170.77 76.3611ZM172.384 76.7127L172.885 77.6661L173.398 76.7127H174.174L173.384 78.0763L174.195 79.4399H173.423L172.885 78.4971L172.356 79.4399H171.574L172.384 78.0763L171.603 76.7127H172.384ZM175.768 79.4932C175.488 79.4932 175.246 79.4364 175.044 79.3228C174.843 79.2079 174.688 79.0458 174.579 78.8362C174.47 78.6255 174.415 78.3764 174.415 78.0887C174.415 77.8082 174.47 77.562 174.579 77.3501C174.688 77.1382 174.841 76.9731 175.039 76.8547C175.237 76.7363 175.471 76.6772 175.738 76.6772C175.918 76.6772 176.086 76.7062 176.241 76.7642C176.397 76.821 176.533 76.9068 176.649 77.0216C176.766 77.1364 176.857 77.2809 176.922 77.4549C176.988 77.6277 177.02 77.8301 177.02 78.0621V78.2698H174.717V77.8011H176.308C176.308 77.6922 176.284 77.5957 176.237 77.5117C176.19 77.4276 176.124 77.3619 176.04 77.3146C175.957 77.2661 175.861 77.2418 175.751 77.2418C175.636 77.2418 175.534 77.2684 175.445 77.3217C175.358 77.3738 175.289 77.4442 175.239 77.533C175.19 77.6206 175.164 77.7182 175.163 77.8259V78.2716C175.163 78.4066 175.188 78.5232 175.237 78.6214C175.288 78.7197 175.36 78.7954 175.452 78.8487C175.545 78.9019 175.654 78.9286 175.781 78.9286C175.865 78.9286 175.942 78.9167 176.012 78.8931C176.081 78.8694 176.141 78.8339 176.191 78.7865C176.241 78.7392 176.279 78.6812 176.305 78.6125L177.004 78.6587C176.969 78.8268 176.896 78.9736 176.786 79.099C176.677 79.2233 176.536 79.3204 176.363 79.3902C176.192 79.4589 175.993 79.4932 175.768 79.4932ZM178.27 75.8036V79.4399H177.514V75.8036H178.27Z" fill="#FF637E"/>
</g>
<path d="M48.5007 36.0498C47.4265 36.0498 46.3964 36.4765 45.6369 37.236C44.8774 37.9956 44.4507 39.0257 44.4507 40.0999V42.7999C44.4507 43.874 44.8774 44.9042 45.6369 45.6637C46.3964 46.4232 47.4265 46.8499 48.5007 46.8499C49.5748 46.8499 50.6049 46.4232 51.3644 45.6637C52.124 44.9042 52.5506 43.874 52.5506 42.7999V40.0999C52.5506 39.0257 52.124 37.9956 51.3644 37.236C50.6049 36.4765 49.5748 36.0498 48.5007 36.0498Z" stroke="#FF7E8F" stroke-width="1.5"/>
<path d="M52.5504 42.7998C52.5504 46.1748 52.1184 48.7399 47.5109 50.8999C42.9034 53.0599 41.7505 56.0745 41.7505 57.65" stroke="#FF7E8F" stroke-width="1.5"/>
<path d="M44.4507 40.1001H52.5506" stroke="#FF7E8F" stroke-width="1.5" stroke-linecap="round"/>
<path d="M56.3331 39.4507C56.3331 35.3345 52.8271 32 48.5004 32C44.1737 32 40.6677 35.3345 40.6677 39.4507C40.6677 42.2831 39.6714 47.4833 36.4287 51.4875C35.4203 52.7336 34.9167 53.3559 35.0112 53.9297C35.1084 54.5034 35.6484 54.8544 36.7284 55.5564C43.797 60.1479 53.2038 60.1479 60.2723 55.5564C61.3523 54.8544 61.8923 54.5034 61.9882 53.9297C62.0854 53.3559 61.5805 52.7336 60.5707 51.4861C57.3307 47.4833 56.3331 42.2831 56.3331 39.4507Z" stroke="#FF7E8F" stroke-width="1.5"/>
<path d="M78.125 36.875L100.125 58.875M101.5 54.75V41C101.5 40.6353 101.355 40.2856 101.097 40.0277C100.839 39.7699 100.49 39.625 100.125 39.625H96.8498C96.5945 39.6249 96.3443 39.5537 96.1272 39.4194C95.91 39.2851 95.7346 39.093 95.6205 38.8646L95.0045 37.6354C94.8904 37.407 94.715 37.2149 94.4978 37.0806C94.2807 36.9463 94.0305 36.8751 93.7752 36.875H87.3664C87.0777 36.8749 86.7963 36.9657 86.5621 37.1345C86.3279 37.3033 86.1527 37.5416 86.0615 37.8155L85.6875 38.9375M96 54.75H80.875C80.5103 54.75 80.1606 54.6051 79.9027 54.3473C79.6449 54.0894 79.5 53.7397 79.5 53.375V41C79.5 40.6353 79.6449 40.2856 79.9027 40.0277C80.1606 39.7699 80.5103 39.625 80.875 39.625" stroke="#FF637E" stroke-width="2" stroke-linecap="round"/>
<path d="M89.125 42.6087C89.8595 42.3483 90.6528 42.3013 91.413 42.4731C92.1732 42.645 92.8691 43.0287 93.4202 43.5798C93.9712 44.1308 94.3549 44.8268 94.5268 45.5869C94.6987 46.3471 94.6517 47.1404 94.3912 47.8749" stroke="#FF637E" stroke-width="2" stroke-linecap="round"/>
<path d="M119 44.417C119 41.219 119 39.62 119.378 39.082C119.755 38.545 121.258 38.03 124.265 37.001L124.838 36.805C126.405 36.268 127.188 36 128 36C128.812 36 129.595 36.268 131.162 36.805L131.735 37.001C134.742 38.03 136.245 38.545 136.622 39.082C137 39.62 137 41.22 137 44.417V45.991C137 51.629 132.761 54.366 130.101 55.527C129.38 55.842 129.02 56 128 56C126.98 56 126.62 55.842 125.899 55.527C123.239 54.365 119 51.63 119 45.991V44.417Z" stroke="#FF637E" stroke-width="1.5"/>
<path d="M125.5 46.4L126.929 48L130.5 44" stroke="#FF637E" stroke-width="1.5" stroke-linecap="round" stroke-linejoin="round"/>
<path d="M217.25 47.858L206 59L194.75 47.858C194.008 47.1359 193.423 46.268 193.033 45.309C192.643 44.3499 192.456 43.3204 192.483 42.2854C192.51 41.2504 192.752 40.2322 193.192 39.295C193.632 38.3578 194.261 37.5219 195.04 36.8399C195.819 36.1579 196.731 35.6446 197.718 35.3322C198.705 35.0199 199.746 34.9154 200.776 35.0252C201.806 35.135 202.801 35.4569 203.7 35.9704C204.599 36.4839 205.382 37.178 206 38.009C206.62 37.1841 207.404 36.496 208.303 35.9879C209.201 35.4799 210.195 35.1627 211.221 35.0563C212.248 34.9499 213.286 35.0566 214.269 35.3696C215.253 35.6826 216.161 36.1953 216.937 36.8756C217.714 37.5558 218.341 38.3889 218.781 39.3229C219.22 40.2568 219.462 41.2713 219.491 42.3031C219.521 43.3348 219.337 44.3615 218.951 45.3189C218.565 46.2763 217.986 47.1438 217.25 47.867" stroke="#FF637E" stroke-width="2" stroke-linecap="round" stroke-linejoin="round"/>
<path d="M206 38L201.06 42.9395C200.779 43.2208 200.621 43.6023 200.621 44C200.621 44.3977 200.779 44.7792 201.06 45.0605L201.875 45.875C202.91 46.91 204.59 46.91 205.625 45.875L207.125 44.375C207.568 43.9314 208.094 43.5795 208.673 43.3395C209.252 43.0994 209.873 42.9758 210.5 42.9758C211.127 42.9758 211.747 43.0994 212.327 43.3395C212.906 43.5795 213.432 43.9314 213.875 44.375L217.25 47.75M206.75 52.25L209.75 55.25M210.5 48.5L213.5 51.5" stroke="#FF637E" stroke-width="2" stroke-linecap="round" stroke-linejoin="round"/>
<defs>
<clipPath id="clip0_243_1073">
<rect width="30" height="39" fill="white" transform="translate(150 31)"/>
</clipPath>
</defs>
</svg>
