<svg width="29" height="29" viewBox="0 0 29 29" fill="none" xmlns="http://www.w3.org/2000/svg">
<path d="M14.2507 4.7998C13.1765 4.7998 12.1464 5.22651 11.3869 5.98604C10.6274 6.74557 10.2007 7.77572 10.2007 8.84986V11.5499C10.2007 12.624 10.6274 13.6542 11.3869 14.4137C12.1464 15.1732 13.1765 15.5999 14.2507 15.5999C15.3248 15.5999 16.3549 15.1732 17.1144 14.4137C17.874 13.6542 18.3006 12.624 18.3006 11.5499V8.84986C18.3006 7.77572 17.874 6.74557 17.1144 5.98604C16.3549 5.22651 15.3248 4.7998 14.2507 4.7998Z" stroke="#E76172" stroke-width="1.5"/>
<path d="M18.3004 11.5498C18.3004 14.9248 17.8684 17.4899 13.2609 19.6499C8.65338 21.8099 7.50049 24.8245 7.50049 26.4" stroke="#E76172" stroke-width="1.5"/>
<path d="M10.2007 8.8501H18.3006" stroke="#E76172" stroke-width="1.5" stroke-linecap="round"/>
<path d="M22.0831 8.20074C22.0831 4.08454 18.5771 0.75 14.2504 0.75C9.92366 0.75 6.41772 4.08454 6.41772 8.20074C6.41772 11.0331 5.42143 16.2333 2.17874 20.2375C1.17029 21.4836 0.666746 22.1059 0.761246 22.6797C0.858445 23.2534 1.39844 23.6044 2.47844 24.3064C9.54701 28.8979 18.9538 28.8979 26.0223 24.3064C27.1023 23.6044 27.6423 23.2534 27.7382 22.6797C27.8354 22.1059 27.3305 21.4836 26.3207 20.2361C23.0807 16.2333 22.0831 11.0331 22.0831 8.20074Z" stroke="#E76172" stroke-width="1.5"/>
</svg>
