<svg width="24" height="24" viewBox="0 0 24 24" fill="none" xmlns="http://www.w3.org/2000/svg">
<path d="M15 3.5H9C5.96243 3.5 3.5 5.96243 3.5 9V15C3.5 18.0376 5.96243 20.5 9 20.5H15C18.0376 20.5 20.5 18.0376 20.5 15V9C20.5 5.96243 18.0376 3.5 15 3.5Z" stroke="white" stroke-width="1.5" stroke-linecap="round" stroke-linejoin="round"/>
<path d="M12 15.6065C13.9916 15.6065 15.606 13.9921 15.606 12.0005C15.606 10.009 13.9916 8.39453 12 8.39453C10.0085 8.39453 8.39404 10.009 8.39404 12.0005C8.39404 13.9921 10.0085 15.6065 12 15.6065Z" stroke="white" stroke-width="1.5" stroke-linecap="round" stroke-linejoin="round"/>
<path d="M16.894 8.13617C17.4629 8.13617 17.924 7.67502 17.924 7.10617C17.924 6.53732 17.4629 6.07617 16.894 6.07617C16.3252 6.07617 15.864 6.53732 15.864 7.10617C15.864 7.67502 16.3252 8.13617 16.894 8.13617Z" fill="white"/>
</svg>
