<svg width="29" height="29" viewBox="0 0 29 29" fill="none" xmlns="http://www.w3.org/2000/svg">
<path d="M3.625 12.587C3.625 8.72279 3.625 6.79067 4.08175 6.14059C4.53729 5.49171 6.35342 4.86942 9.98688 3.62605L10.6793 3.38921C12.5727 2.74034 13.5188 2.4165 14.5 2.4165C15.4812 2.4165 16.4273 2.74034 18.3208 3.38921L19.0131 3.62605C22.6466 4.86942 24.4627 5.49171 24.9183 6.14059C25.375 6.79067 25.375 8.724 25.375 12.587V14.489C25.375 21.3015 20.2529 24.6088 17.0387 26.0116C16.1675 26.3923 15.7325 26.5832 14.5 26.5832C13.2675 26.5832 12.8325 26.3923 11.9613 26.0116C8.74713 24.6075 3.625 21.3028 3.625 14.489V12.587Z" stroke="#E76172" stroke-width="1.5"/>
<path d="M11.4792 14.983L13.206 16.9163L17.5209 12.083" stroke="#E76172" stroke-width="1.5" stroke-linecap="round" stroke-linejoin="round"/>
</svg>
