<svg width="190" height="41" viewBox="0 0 190 41" fill="none" xmlns="http://www.w3.org/2000/svg">
<g clip-path="url(#clip0_243_1074)">
<path fill-rule="evenodd" clip-rule="evenodd" d="M130.75 2.92334C122.969 2.92334 116.638 9.50716 116.638 17.5998C116.638 18.3823 116.699 19.1723 116.819 19.9479C117.925 27.0915 123.784 32.2763 130.75 32.2763C137.719 32.2763 143.578 27.0915 144.683 19.9479C144.802 19.1785 144.862 18.3892 144.862 17.5998C144.862 9.50716 138.532 2.92334 130.75 2.92334ZM137.261 27.7373C135.337 29.0802 133.086 29.7897 130.75 29.7897C125.24 29.7897 120.539 25.8909 119.321 20.3105C119.127 19.4281 119.029 18.5165 119.029 17.5998C119.029 15.1768 119.711 12.8356 121.002 10.8294L121.57 9.94771L126.58 15.1569L126.595 20.1195C126.583 21.0156 128.212 21.3251 128.315 20.1152V16.9621L128.502 17.1568L128.452 27.4902C128.429 28.4468 130.381 28.7588 130.552 27.4453L130.547 19.2834L130.822 19.5704L130.865 27.5751C130.85 28.5997 132.852 28.581 132.919 27.1938L132.901 21.7319L138.109 27.147L137.261 27.7373ZM132.874 13.4908L133.068 13.5607V18.1134L132.889 17.9262L132.874 13.4908ZM142.181 20.3092C141.866 21.7563 141.301 23.1228 140.5 24.3696L139.933 25.2551L134.867 19.9854C134.873 19.9467 134.88 19.9117 134.882 19.8693L134.931 12.2721C134.931 11.1814 134.121 10.4868 133.153 10.3727H128.299C127.564 10.4138 126.932 10.8338 126.685 11.4734L123.394 8.04888L124.243 7.45857C126.174 6.11697 128.424 5.40748 130.75 5.40748C137.214 5.40748 142.474 10.8775 142.474 17.5998C142.474 18.5146 142.375 19.4269 142.181 20.3092Z" fill="#FF637E"/>
<path fill-rule="evenodd" clip-rule="evenodd" d="M130.916 6.87744C130.065 6.87744 129.375 7.60503 129.375 8.50483C129.375 9.40464 130.065 10.1322 130.916 10.1322C131.768 10.1322 132.462 9.40464 132.462 8.50483C132.462 7.60503 131.768 6.87744 130.916 6.87744Z" fill="#FF637E"/>
<path d="M119.275 42.0767H118.497C118.483 41.976 118.454 41.8867 118.41 41.8085C118.366 41.7292 118.31 41.6618 118.241 41.6061C118.172 41.5505 118.093 41.5079 118.003 41.4783C117.914 41.4487 117.818 41.4339 117.714 41.4339C117.526 41.4339 117.362 41.4807 117.222 41.5742C117.082 41.6665 116.974 41.8014 116.897 41.979C116.82 42.1554 116.782 42.3696 116.782 42.6218C116.782 42.881 116.82 43.0988 116.897 43.2752C116.975 43.4515 117.084 43.5847 117.224 43.6747C117.363 43.7646 117.525 43.8096 117.708 43.8096C117.811 43.8096 117.907 43.796 117.994 43.7688C118.083 43.7416 118.162 43.7019 118.23 43.6498C118.299 43.5965 118.356 43.532 118.401 43.4563C118.447 43.3805 118.479 43.2941 118.497 43.197L119.275 43.2006C119.254 43.3675 119.204 43.5285 119.124 43.6835C119.044 43.8374 118.937 43.9753 118.802 44.0973C118.668 44.218 118.509 44.3139 118.323 44.3849C118.138 44.4547 117.929 44.4897 117.696 44.4897C117.372 44.4897 117.082 44.4163 116.826 44.2695C116.571 44.1227 116.37 43.9102 116.222 43.6321C116.076 43.3539 116.002 43.0171 116.002 42.6218C116.002 42.2252 116.077 41.8879 116.226 41.6097C116.375 41.3315 116.577 41.1196 116.833 40.974C117.089 40.8273 117.376 40.7539 117.696 40.7539C117.907 40.7539 118.102 40.7835 118.282 40.8426C118.463 40.9018 118.623 40.9882 118.763 41.1019C118.903 41.2143 119.016 41.3522 119.104 41.5156C119.193 41.6789 119.25 41.866 119.275 42.0767ZM119.812 44.4399V41.7127H120.545V42.1885H120.573C120.623 42.0193 120.706 41.8914 120.824 41.805C120.941 41.7174 121.076 41.6736 121.229 41.6736C121.266 41.6736 121.307 41.676 121.351 41.6807C121.395 41.6854 121.433 41.692 121.466 41.7002V42.3714C121.431 42.3608 121.382 42.3513 121.319 42.343C121.256 42.3347 121.199 42.3306 121.147 42.3306C121.036 42.3306 120.936 42.3548 120.849 42.4034C120.762 42.4507 120.693 42.517 120.643 42.6022C120.593 42.6875 120.568 42.7857 120.568 42.897V44.4399H119.812ZM122.973 44.4932C122.693 44.4932 122.451 44.4364 122.249 44.3228C122.048 44.2079 121.893 44.0458 121.784 43.8362C121.675 43.6255 121.62 43.3764 121.62 43.0887C121.62 42.8082 121.675 42.562 121.784 42.3501C121.893 42.1382 122.046 41.9731 122.244 41.8547C122.443 41.7363 122.676 41.6772 122.943 41.6772C123.123 41.6772 123.291 41.7062 123.446 41.7642C123.602 41.821 123.738 41.9068 123.854 42.0216C123.971 42.1364 124.062 42.2809 124.128 42.4549C124.193 42.6277 124.225 42.8301 124.225 43.0621V43.2698H121.922V42.8011H123.513C123.513 42.6922 123.49 42.5957 123.442 42.5117C123.395 42.4276 123.329 42.3619 123.245 42.3146C123.162 42.2661 123.066 42.2418 122.956 42.2418C122.841 42.2418 122.739 42.2684 122.65 42.3217C122.563 42.3738 122.494 42.4442 122.444 42.533C122.395 42.6206 122.369 42.7182 122.368 42.8259V43.2716C122.368 43.4066 122.393 43.5232 122.443 43.6214C122.493 43.7197 122.565 43.7954 122.657 43.8487C122.75 43.9019 122.859 43.9286 122.986 43.9286C123.07 43.9286 123.147 43.9167 123.217 43.8931C123.287 43.8694 123.346 43.8339 123.396 43.7865C123.446 43.7392 123.484 43.6812 123.51 43.6125L124.209 43.6587C124.174 43.8268 124.101 43.9736 123.991 44.099C123.882 44.2233 123.741 44.3204 123.568 44.3902C123.397 44.4589 123.198 44.4932 122.973 44.4932ZM125.497 44.4914C125.323 44.4914 125.167 44.4612 125.031 44.4009C124.895 44.3393 124.787 44.2488 124.708 44.1292C124.63 44.0085 124.591 43.8581 124.591 43.6782C124.591 43.5267 124.619 43.3995 124.674 43.2965C124.73 43.1935 124.806 43.1106 124.902 43.0479C124.998 42.9852 125.107 42.9378 125.228 42.9059C125.352 42.8739 125.481 42.8514 125.616 42.8384C125.774 42.8218 125.902 42.8064 125.999 42.7922C126.096 42.7768 126.167 42.7543 126.21 42.7247C126.254 42.6951 126.276 42.6514 126.276 42.5934V42.5827C126.276 42.4702 126.241 42.3832 126.169 42.3217C126.1 42.2601 126 42.2294 125.871 42.2294C125.735 42.2294 125.627 42.2595 125.546 42.3199C125.466 42.3791 125.412 42.4537 125.386 42.5436L124.687 42.4868C124.722 42.3211 124.792 42.1779 124.896 42.0571C125.001 41.9352 125.135 41.8417 125.299 41.7766C125.465 41.7103 125.657 41.6772 125.875 41.6772C126.026 41.6772 126.171 41.6949 126.31 41.7304C126.449 41.7659 126.573 41.821 126.681 41.8956C126.79 41.9701 126.876 42.066 126.938 42.1832C127.001 42.2992 127.032 42.4383 127.032 42.6005V44.4399H126.315V44.0617H126.294C126.25 44.147 126.191 44.2221 126.118 44.2872C126.045 44.3512 125.956 44.4015 125.853 44.4382C125.75 44.4737 125.631 44.4914 125.497 44.4914ZM125.713 43.9694C125.824 43.9694 125.923 43.9475 126.008 43.9037C126.093 43.8587 126.16 43.7984 126.209 43.7226C126.257 43.6469 126.281 43.561 126.281 43.4652V43.1757C126.258 43.1911 126.225 43.2053 126.184 43.2184C126.143 43.2302 126.098 43.2414 126.047 43.2521C125.996 43.2616 125.945 43.2704 125.894 43.2787C125.843 43.2858 125.797 43.2923 125.756 43.2983C125.667 43.3113 125.589 43.332 125.523 43.3604C125.457 43.3888 125.405 43.4273 125.369 43.4758C125.332 43.5232 125.314 43.5823 125.314 43.6534C125.314 43.7563 125.351 43.8351 125.426 43.8895C125.501 43.9428 125.597 43.9694 125.713 43.9694ZM129.07 41.7127V42.2809H127.427V41.7127H129.07ZM127.8 41.0593H128.557V43.6019C128.557 43.6717 128.567 43.7262 128.589 43.7652C128.61 43.8031 128.64 43.8297 128.677 43.8451C128.717 43.8605 128.762 43.8682 128.812 43.8682C128.848 43.8682 128.883 43.8652 128.919 43.8593C128.954 43.8522 128.982 43.8469 129.001 43.8434L129.12 44.4062C129.082 44.418 129.028 44.4317 128.96 44.447C128.891 44.4636 128.808 44.4737 128.709 44.4772C128.527 44.4843 128.367 44.4601 128.23 44.4044C128.094 44.3488 127.988 44.2624 127.912 44.1452C127.836 44.028 127.799 43.88 127.8 43.7013V41.0593ZM130.776 44.4932C130.496 44.4932 130.254 44.4364 130.052 44.3228C129.851 44.2079 129.695 44.0458 129.587 43.8362C129.478 43.6255 129.423 43.3764 129.423 43.0887C129.423 42.8082 129.478 42.562 129.587 42.3501C129.695 42.1382 129.849 41.9731 130.046 41.8547C130.245 41.7363 130.478 41.6772 130.746 41.6772C130.926 41.6772 131.093 41.7062 131.248 41.7642C131.405 41.821 131.541 41.9068 131.657 42.0216C131.774 42.1364 131.865 42.2809 131.93 42.4549C131.995 42.6277 132.028 42.8301 132.028 43.0621V43.2698H129.725V42.8011H131.316C131.316 42.6922 131.292 42.5957 131.245 42.5117C131.198 42.4276 131.132 42.3619 131.048 42.3146C130.965 42.2661 130.869 42.2418 130.758 42.2418C130.644 42.2418 130.542 42.2684 130.453 42.3217C130.365 42.3738 130.297 42.4442 130.247 42.533C130.197 42.6206 130.172 42.7182 130.171 42.8259V43.2716C130.171 43.4066 130.196 43.5232 130.245 43.6214C130.296 43.7197 130.368 43.7954 130.46 43.8487C130.552 43.9019 130.662 43.9286 130.789 43.9286C130.873 43.9286 130.95 43.9167 131.019 43.8931C131.089 43.8694 131.149 43.8339 131.199 43.7865C131.248 43.7392 131.286 43.6812 131.312 43.6125L132.012 43.6587C131.976 43.8268 131.904 43.9736 131.794 44.099C131.685 44.2233 131.544 44.3204 131.371 44.3902C131.199 44.4589 131.001 44.4932 130.776 44.4932ZM133.527 44.4843C133.319 44.4843 133.132 44.4311 132.964 44.3245C132.797 44.2168 132.664 44.0588 132.566 43.8505C132.469 43.6409 132.42 43.3841 132.42 43.0799C132.42 42.7674 132.471 42.5075 132.571 42.3004C132.672 42.092 132.806 41.9364 132.973 41.8334C133.141 41.7292 133.325 41.6772 133.525 41.6772C133.677 41.6772 133.805 41.7032 133.907 41.7553C134.009 41.8062 134.092 41.8701 134.155 41.947C134.219 42.0228 134.268 42.0974 134.301 42.1708H134.324V40.8036H135.078V44.4399H134.333V44.0032H134.301C134.265 44.0789 134.215 44.1541 134.15 44.2286C134.086 44.302 134.002 44.363 133.899 44.4115C133.798 44.4601 133.673 44.4843 133.527 44.4843ZM133.766 43.8824C133.888 43.8824 133.991 43.8493 134.075 43.783C134.16 43.7155 134.226 43.6214 134.271 43.5007C134.317 43.3799 134.34 43.2385 134.34 43.0763C134.34 42.9141 134.317 42.7733 134.272 42.6537C134.227 42.5342 134.162 42.4418 134.077 42.3767C133.992 42.3116 133.888 42.2791 133.766 42.2791C133.642 42.2791 133.537 42.3128 133.452 42.3803C133.367 42.4478 133.302 42.5413 133.258 42.6608C133.215 42.7804 133.193 42.9189 133.193 43.0763C133.193 43.2349 133.215 43.3752 133.258 43.4971C133.303 43.6179 133.368 43.7126 133.452 43.7812C133.537 43.8487 133.642 43.8824 133.766 43.8824ZM136.872 44.4399V40.8036H137.628V42.1708H137.651C137.684 42.0974 137.732 42.0228 137.795 41.947C137.859 41.8701 137.942 41.8062 138.044 41.7553C138.147 41.7032 138.274 41.6772 138.427 41.6772C138.626 41.6772 138.809 41.7292 138.978 41.8334C139.146 41.9364 139.28 42.092 139.381 42.3004C139.481 42.5075 139.532 42.7674 139.532 43.0799C139.532 43.3841 139.482 43.6409 139.384 43.8505C139.287 44.0588 139.155 44.2168 138.986 44.3245C138.82 44.4311 138.632 44.4843 138.425 44.4843C138.279 44.4843 138.154 44.4601 138.051 44.4115C137.949 44.363 137.865 44.302 137.8 44.2286C137.735 44.1541 137.686 44.0789 137.651 44.0032H137.617V44.4399H136.872ZM137.612 43.0763C137.612 43.2385 137.635 43.3799 137.68 43.5007C137.725 43.6214 137.79 43.7155 137.875 43.783C137.96 43.8493 138.064 43.8824 138.186 43.8824C138.309 43.8824 138.413 43.8487 138.498 43.7812C138.583 43.7126 138.648 43.6179 138.692 43.4971C138.737 43.3752 138.759 43.2349 138.759 43.0763C138.759 42.9189 138.737 42.7804 138.693 42.6608C138.65 42.5413 138.585 42.4478 138.5 42.3803C138.415 42.3128 138.31 42.2791 138.186 42.2791C138.063 42.2791 137.958 42.3116 137.873 42.3767C137.789 42.4418 137.725 42.5342 137.68 42.6537C137.635 42.7733 137.612 42.9141 137.612 43.0763ZM140.415 45.4627C140.319 45.4627 140.229 45.455 140.145 45.4396C140.063 45.4254 139.994 45.407 139.939 45.3845L140.11 44.8199C140.199 44.8471 140.279 44.8619 140.35 44.8643C140.422 44.8667 140.484 44.8501 140.536 44.8146C140.589 44.7791 140.633 44.7187 140.666 44.6335L140.71 44.5181L139.732 41.7127H140.527L141.092 43.7155H141.12L141.69 41.7127H142.491L141.431 44.7347C141.38 44.8815 141.311 45.0093 141.223 45.1182C141.137 45.2283 141.027 45.3129 140.895 45.3721C140.762 45.4325 140.602 45.4627 140.415 45.4627ZM116.066 46.8036H117.014L118.016 49.2468H118.058L119.06 46.8036H120.008V50.4399H119.262V48.0731H119.232L118.291 50.4222H117.783L116.842 48.0642H116.812V50.4399H116.066V46.8036ZM120.627 50.4399V47.7127H121.383V50.4399H120.627ZM121.007 47.3611C120.895 47.3611 120.798 47.3238 120.718 47.2492C120.638 47.1735 120.599 47.0829 120.599 46.9776C120.599 46.8734 120.638 46.784 120.718 46.7095C120.798 46.6337 120.895 46.5958 121.007 46.5958C121.119 46.5958 121.215 46.6337 121.295 46.7095C121.375 46.784 121.415 46.8734 121.415 46.9776C121.415 47.0829 121.375 47.1735 121.295 47.2492C121.215 47.3238 121.119 47.3611 121.007 47.3611ZM124.259 48.4904L123.566 48.533C123.554 48.4738 123.529 48.4205 123.49 48.3732C123.451 48.3246 123.399 48.2862 123.335 48.2578C123.272 48.2282 123.197 48.2134 123.11 48.2134C122.993 48.2134 122.894 48.2382 122.813 48.288C122.733 48.3365 122.692 48.4016 122.692 48.4833C122.692 48.5484 122.719 48.6034 122.771 48.6484C122.823 48.6934 122.912 48.7295 123.039 48.7567L123.532 48.8561C123.797 48.9106 123.995 48.9982 124.125 49.1189C124.256 49.2397 124.321 49.3983 124.321 49.5948C124.321 49.7735 124.268 49.9304 124.163 50.0653C124.058 50.2002 123.915 50.3056 123.733 50.3813C123.552 50.4559 123.343 50.4932 123.106 50.4932C122.745 50.4932 122.458 50.418 122.243 50.2677C122.03 50.1162 121.905 49.9102 121.869 49.6498L122.613 49.6108C122.635 49.7208 122.69 49.8049 122.776 49.8629C122.862 49.9197 122.973 49.9481 123.108 49.9481C123.241 49.9481 123.347 49.9227 123.428 49.8718C123.509 49.8197 123.551 49.7528 123.552 49.6711C123.551 49.6025 123.522 49.5462 123.465 49.5024C123.408 49.4575 123.32 49.4231 123.202 49.3995L122.73 49.3054C122.463 49.2521 122.265 49.1598 122.135 49.0284C122.006 48.897 121.941 48.7295 121.941 48.5259C121.941 48.3507 121.989 48.1998 122.083 48.0731C122.179 47.9465 122.314 47.8488 122.487 47.7801C122.661 47.7115 122.864 47.6772 123.097 47.6772C123.442 47.6772 123.713 47.75 123.911 47.8956C124.109 48.0411 124.225 48.2394 124.259 48.4904ZM126.248 47.7127V48.2809H124.605V47.7127H126.248ZM124.978 47.0593H125.734V49.6019C125.734 49.6717 125.745 49.7262 125.766 49.7652C125.788 49.8031 125.817 49.8297 125.855 49.8451C125.894 49.8605 125.939 49.8682 125.99 49.8682C126.026 49.8682 126.061 49.8652 126.097 49.8593C126.132 49.8522 126.159 49.8469 126.178 49.8434L126.297 50.4062C126.259 50.418 126.206 50.4317 126.138 50.447C126.069 50.4636 125.985 50.4737 125.887 50.4772C125.705 50.4843 125.545 50.4601 125.408 50.4044C125.272 50.3488 125.166 50.2624 125.09 50.1452C125.014 50.028 124.977 49.88 124.978 49.7013V47.0593ZM127.954 50.4932C127.673 50.4932 127.432 50.4364 127.229 50.3228C127.028 50.2079 126.873 50.0458 126.764 49.8362C126.655 49.6255 126.601 49.3764 126.601 49.0887C126.601 48.8082 126.655 48.562 126.764 48.3501C126.873 48.1382 127.026 47.9731 127.224 47.8547C127.423 47.7363 127.656 47.6772 127.924 47.6772C128.104 47.6772 128.271 47.7062 128.426 47.7642C128.582 47.821 128.719 47.9068 128.835 48.0216C128.952 48.1364 129.043 48.2809 129.108 48.4549C129.173 48.6277 129.206 48.8301 129.206 49.0621V49.2698H126.903V48.8011H128.494C128.494 48.6922 128.47 48.5957 128.423 48.5117C128.375 48.4276 128.31 48.3619 128.226 48.3146C128.143 48.2661 128.046 48.2418 127.936 48.2418C127.821 48.2418 127.72 48.2684 127.631 48.3217C127.543 48.3738 127.475 48.4442 127.425 48.533C127.375 48.6206 127.35 48.7182 127.348 48.8259V49.2716C127.348 49.4066 127.373 49.5232 127.423 49.6214C127.474 49.7197 127.546 49.7954 127.638 49.8487C127.73 49.9019 127.84 49.9286 127.966 49.9286C128.05 49.9286 128.127 49.9167 128.197 49.8931C128.267 49.8694 128.327 49.8339 128.377 49.7865C128.426 49.7392 128.464 49.6812 128.49 49.6125L129.19 49.6587C129.154 49.8268 129.081 49.9736 128.971 50.099C128.862 50.2233 128.722 50.3204 128.549 50.3902C128.377 50.4589 128.179 50.4932 127.954 50.4932ZM129.699 50.4399V47.7127H130.433V48.1885H130.461C130.511 48.0193 130.594 47.8914 130.711 47.805C130.829 47.7174 130.964 47.6736 131.116 47.6736C131.154 47.6736 131.195 47.676 131.239 47.6807C131.283 47.6854 131.321 47.692 131.354 47.7002V48.3714C131.319 48.3608 131.27 48.3513 131.207 48.343C131.144 48.3347 131.087 48.3306 131.035 48.3306C130.923 48.3306 130.824 48.3548 130.736 48.4034C130.65 48.4507 130.581 48.517 130.53 48.6022C130.481 48.6875 130.456 48.7857 130.456 48.897V50.4399H129.699ZM132.917 50.4399V46.8036H134.351C134.627 46.8036 134.862 46.8563 135.056 46.9616C135.25 47.0658 135.398 47.2108 135.5 47.3966C135.603 47.5813 135.655 47.7943 135.655 48.0358C135.655 48.2773 135.602 48.4904 135.498 48.675C135.394 48.8597 135.243 49.0035 135.046 49.1065C134.849 49.2095 134.611 49.261 134.332 49.261H133.417V48.6448H134.207C134.355 48.6448 134.477 48.6194 134.573 48.5685C134.67 48.5164 134.743 48.4448 134.79 48.3536C134.838 48.2613 134.863 48.1554 134.863 48.0358C134.863 47.9151 134.838 47.8097 134.79 47.7198C134.743 47.6286 134.67 47.5582 134.573 47.5085C134.476 47.4576 134.353 47.4321 134.204 47.4321H133.685V50.4399H132.917ZM136.14 50.4399V47.7127H136.896V50.4399H136.14ZM136.52 47.3611C136.407 47.3611 136.311 47.3238 136.23 47.2492C136.151 47.1735 136.111 47.0829 136.111 46.9776C136.111 46.8734 136.151 46.784 136.23 46.7095C136.311 46.6337 136.407 46.5958 136.52 46.5958C136.632 46.5958 136.728 46.6337 136.807 46.7095C136.888 46.784 136.928 46.8734 136.928 46.9776C136.928 47.0829 136.888 47.1735 136.807 47.2492C136.728 47.3238 136.632 47.3611 136.52 47.3611ZM138.134 47.7127L138.635 48.6661L139.148 47.7127H139.924L139.134 49.0763L139.945 50.4399H139.173L138.635 49.4971L138.106 50.4399H137.324L138.134 49.0763L137.353 47.7127H138.134ZM141.518 50.4932C141.238 50.4932 140.996 50.4364 140.794 50.3228C140.593 50.2079 140.438 50.0458 140.329 49.8362C140.22 49.6255 140.165 49.3764 140.165 49.0887C140.165 48.8082 140.22 48.562 140.329 48.3501C140.438 48.1382 140.591 47.9731 140.789 47.8547C140.987 47.7363 141.221 47.6772 141.488 47.6772C141.668 47.6772 141.836 47.7062 141.991 47.7642C142.147 47.821 142.283 47.9068 142.399 48.0216C142.516 48.1364 142.607 48.2809 142.672 48.4549C142.738 48.6277 142.77 48.8301 142.77 49.0621V49.2698H140.467V48.8011H142.058C142.058 48.6922 142.034 48.5957 141.987 48.5117C141.94 48.4276 141.874 48.3619 141.79 48.3146C141.707 48.2661 141.611 48.2418 141.501 48.2418C141.386 48.2418 141.284 48.2684 141.195 48.3217C141.108 48.3738 141.039 48.4442 140.989 48.533C140.94 48.6206 140.914 48.7182 140.913 48.8259V49.2716C140.913 49.4066 140.938 49.5232 140.987 49.6214C141.038 49.7197 141.11 49.7954 141.202 49.8487C141.295 49.9019 141.404 49.9286 141.531 49.9286C141.615 49.9286 141.692 49.9167 141.762 49.8931C141.831 49.8694 141.891 49.8339 141.941 49.7865C141.991 49.7392 142.029 49.6812 142.055 49.6125L142.754 49.6587C142.719 49.8268 142.646 49.9736 142.536 50.099C142.427 50.2233 142.286 50.3204 142.113 50.3902C141.942 50.4589 141.743 50.4932 141.518 50.4932ZM144.02 46.8036V50.4399H143.264V46.8036H144.02Z" fill="#FF637E"/>
</g>
<path d="M14.2507 7.0498C13.1765 7.0498 12.1464 7.47651 11.3869 8.23604C10.6274 8.99557 10.2007 10.0257 10.2007 11.0999V13.7999C10.2007 14.874 10.6274 15.9042 11.3869 16.6637C12.1464 17.4232 13.1765 17.8499 14.2507 17.8499C15.3248 17.8499 16.3549 17.4232 17.1144 16.6637C17.874 15.9042 18.3006 14.874 18.3006 13.7999V11.0999C18.3006 10.0257 17.874 8.99557 17.1144 8.23604C16.3549 7.47651 15.3248 7.0498 14.2507 7.0498Z" stroke="#FF7E8F" stroke-width="1.5"/>
<path d="M18.3004 13.7998C18.3004 17.1748 17.8684 19.7399 13.2609 21.8999C8.65338 24.0599 7.50049 27.0745 7.50049 28.65" stroke="#FF7E8F" stroke-width="1.5"/>
<path d="M10.2007 11.1001H18.3006" stroke="#FF7E8F" stroke-width="1.5" stroke-linecap="round"/>
<path d="M22.0831 10.4507C22.0831 6.33454 18.5771 3 14.2504 3C9.92366 3 6.41772 6.33454 6.41772 10.4507C6.41772 13.2831 5.42143 18.4833 2.17874 22.4875C1.17029 23.7336 0.666746 24.3559 0.761246 24.9297C0.858445 25.5034 1.39844 25.8544 2.47844 26.5564C9.54701 31.1479 18.9538 31.1479 26.0223 26.5564C27.1023 25.8544 27.6423 25.5034 27.7382 24.9297C27.8354 24.3559 27.3305 23.7336 26.3207 22.4861C23.0807 18.4833 22.0831 13.2831 22.0831 10.4507Z" stroke="#FF7E8F" stroke-width="1.5"/>
<path d="M43.875 7.875L65.875 29.875M67.25 25.75V12C67.25 11.6353 67.1051 11.2856 66.8473 11.0277C66.5894 10.7699 66.2397 10.625 65.875 10.625H62.5998C62.3445 10.6249 62.0943 10.5537 61.8772 10.4194C61.66 10.2851 61.4846 10.093 61.3705 9.86463L60.7545 8.63537C60.6404 8.40701 60.465 8.21493 60.2478 8.08063C60.0307 7.94634 59.7805 7.87514 59.5252 7.875H53.1164C52.8277 7.87493 52.5463 7.96573 52.3121 8.13454C52.0779 8.30335 51.9027 8.54159 51.8115 8.8155L51.4375 9.9375M61.75 25.75H46.625C46.2603 25.75 45.9106 25.6051 45.6527 25.3473C45.3949 25.0894 45.25 24.7397 45.25 24.375V12C45.25 11.6353 45.3949 11.2856 45.6527 11.0277C45.9106 10.7699 46.2603 10.625 46.625 10.625" stroke="#FF637E" stroke-width="2" stroke-linecap="round"/>
<path d="M54.875 13.6087C55.6095 13.3483 56.4028 13.3013 57.163 13.4731C57.9232 13.645 58.6191 14.0287 59.1702 14.5798C59.7212 15.1308 60.1049 15.8268 60.2768 16.5869C60.4487 17.3471 60.4017 18.1404 60.1412 18.8749" stroke="#FF637E" stroke-width="2" stroke-linecap="round"/>
<path d="M84.75 15.417C84.75 12.219 84.75 10.62 85.128 10.082C85.505 9.545 87.008 9.03 90.015 8.001L90.588 7.805C92.155 7.268 92.938 7 93.75 7C94.562 7 95.345 7.268 96.912 7.805L97.485 8.001C100.492 9.03 101.995 9.545 102.372 10.082C102.75 10.62 102.75 12.22 102.75 15.417V16.991C102.75 22.629 98.511 25.366 95.851 26.527C95.13 26.842 94.77 27 93.75 27C92.73 27 92.37 26.842 91.649 26.527C88.989 25.365 84.75 22.63 84.75 16.991V15.417Z" stroke="#FF637E" stroke-width="1.5"/>
<path d="M91.25 17.4L92.679 19L96.25 15" stroke="#FF637E" stroke-width="1.5" stroke-linecap="round" stroke-linejoin="round"/>
<path d="M183 18.858L171.75 30L160.5 18.858C159.758 18.1359 159.173 17.268 158.783 16.309C158.393 15.3499 158.206 14.3204 158.233 13.2854C158.26 12.2504 158.502 11.2322 158.942 10.295C159.382 9.35783 160.011 8.5219 160.79 7.83989C161.569 7.15788 162.481 6.64455 163.468 6.33224C164.455 6.01993 165.496 5.9154 166.526 6.02522C167.556 6.13505 168.551 6.45686 169.45 6.97038C170.349 7.4839 171.132 8.17802 171.75 9.00902C172.37 8.18405 173.154 7.496 174.053 6.98793C174.951 6.47985 175.945 6.1627 176.971 6.0563C177.998 5.94991 179.036 6.05657 180.019 6.36961C181.003 6.68265 181.911 7.19533 182.687 7.87557C183.464 8.5558 184.091 9.38895 184.531 10.3229C184.97 11.2568 185.212 12.2713 185.241 13.3031C185.271 14.3348 185.087 15.3615 184.701 16.3189C184.315 17.2763 183.736 18.1438 183 18.867" stroke="#FF637E" stroke-width="2" stroke-linecap="round" stroke-linejoin="round"/>
<path d="M171.75 9L166.81 13.9395C166.529 14.2208 166.371 14.6023 166.371 15C166.371 15.3977 166.529 15.7792 166.81 16.0605L167.625 16.875C168.66 17.91 170.34 17.91 171.375 16.875L172.875 15.375C173.318 14.9314 173.844 14.5795 174.423 14.3395C175.002 14.0994 175.623 13.9758 176.25 13.9758C176.877 13.9758 177.497 14.0994 178.077 14.3395C178.656 14.5795 179.182 14.9314 179.625 15.375L183 18.75M172.5 23.25L175.5 26.25M176.25 19.5L179.25 22.5" stroke="#FF637E" stroke-width="2" stroke-linecap="round" stroke-linejoin="round"/>
<defs>
<clipPath id="clip0_243_1074">
<rect width="30" height="39" fill="white" transform="translate(115.75 2)"/>
</clipPath>
</defs>
</svg>
