<svg width="24" height="24" viewBox="0 0 24 24" fill="none" xmlns="http://www.w3.org/2000/svg">
<path d="M21.175 13.525C21.3583 13.725 21.45 13.9627 21.45 14.238C21.45 14.5133 21.3583 14.7507 21.175 14.95L17.625 18.475C17.4417 18.675 17.2083 18.775 16.925 18.775C16.6417 18.775 16.4083 18.675 16.225 18.475L14.8 17.075C14.6 16.875 14.5 16.6377 14.5 16.363C14.5 16.0883 14.6 15.8507 14.8 15.65C15 15.4667 15.2377 15.375 15.513 15.375C15.7883 15.375 16.0257 15.4667 16.225 15.65L16.925 16.35L19.75 13.525C19.95 13.3417 20.1873 13.25 20.462 13.25C20.7367 13.25 20.9743 13.3417 21.175 13.525ZM9.325 23.425L6.825 21.15C5.625 20.0667 4.596 19.1 3.738 18.25C2.88 17.4 2.17167 16.6 1.613 15.85C1.05433 15.1 0.646 14.375 0.388 13.675C0.13 12.975 0.000666667 12.2417 0 11.475C0 9.90833 0.525 8.60433 1.575 7.563C2.625 6.52167 3.93333 6.00067 5.5 6C6.36667 6 7.19167 6.17933 7.975 6.538C8.75833 6.89667 9.43333 7.409 10 8.075C10.5667 7.40833 11.2417 6.896 12.025 6.538C12.8083 6.18 13.6333 6.00067 14.5 6C15.9167 6 17.1043 6.42933 18.063 7.288C19.0217 8.14667 19.6173 9.15067 19.85 10.3C19.5167 10.1667 19.1667 10.0833 18.8 10.05C18.4333 10.0167 18.0583 10 17.675 10C16.2583 10 14.9583 10.571 13.775 11.713C12.5917 12.855 12 14.284 12 16C12 16.8 12.175 17.6127 12.525 18.438C12.875 19.2633 13.3667 19.934 14 20.45C13.6833 20.7333 13.271 21.096 12.763 21.538C12.255 21.98 11.8173 22.3673 11.45 22.7L10.65 23.425C10.4667 23.5917 10.2457 23.675 9.987 23.675C9.72833 23.675 9.50767 23.5917 9.325 23.425Z" fill="white"/>
</svg>
